<svg width="312" height="123" viewBox="0 0 312 123" fill="none" xmlns="http://www.w3.org/2000/svg">
<g clip-path="url(#clip0_4_2)">
<path d="M27.1 122.4C26.8 91.9 38 62.6 58.4 40L69.5 50C51.6 69.8 41.8 95.5 42 122.2L27.1 122.4Z" fill="#A6DEFF"/>
<path d="M76.5 43L66.4 32C87.6 12.5 115 1.1 143.8 0L144.4 15C119.2 16 95.1 25.9 76.5 43Z" fill="#76C3F1"/>
<path d="M221.3 43.6C202.9 26.4 179 16.3 153.9 15L154.7 0C183.3 1.4 210.6 13 231.6 32.6L221.3 43.6Z" fill="#5FAAD7"/>
<path d="M270.1 121.4H255.1C255.1 95 245.4 69.7 227.7 50.1L238.8 40.1C259 62.4 270.1 91.3 270.1 121.4Z" fill="#0077BF"/>
<path d="M54.7 122.5C54.3 122.5 54 122.4 53.8 122.2C53.5 122 53.3 121.7 53.2 121.4C53.1 121 53 120.6 53 120.1C53 119.6 53.1 119.1 53.2 118.8C53.3 118.4 53.5 118.2 53.8 118C54.1 117.8 54.4 117.7 54.7 117.7C55.1 117.7 55.4 117.8 55.6 118C55.9 118.2 56.1 118.5 56.2 118.8C56.3 119.2 56.4 119.6 56.4 120.1C56.4 120.6 56.3 121.1 56.2 121.4C56.1 121.8 55.9 122 55.6 122.2C55.4 122.4 55 122.5 54.7 122.5ZM54.7 121.9C55 121.9 55.3 121.7 55.5 121.4C55.7 121.1 55.8 120.6 55.8 120C55.8 119.6 55.8 119.3 55.7 119C55.6 118.7 55.5 118.5 55.3 118.4C55.1 118.3 55 118.2 54.8 118.2C54.5 118.2 54.2 118.4 54 118.7C53.8 119 53.7 119.5 53.7 120.1C53.7 120.5 53.7 120.8 53.8 121.1C53.9 121.4 54 121.6 54.2 121.7C54.3 121.8 54.5 121.9 54.7 121.9Z" fill="#171717"/>
<path d="M57.8 88.7V93.4H57.1V89.4L56 90.1V89.4L57.2 88.6H57.8V88.7ZM60.7 93.5C60.3 93.5 60 93.4 59.8 93.2C59.5 93 59.3 92.7 59.2 92.4C59.1 92 59 91.6 59 91C59 90.5 59.1 90 59.2 89.7C59.3 89.3 59.5 89.1 59.8 88.9C60.1 88.7 60.4 88.6 60.7 88.6C61.1 88.6 61.4 88.7 61.6 88.9C61.9 89.1 62.1 89.4 62.2 89.7C62.3 90.1 62.4 90.5 62.4 91C62.4 91.5 62.3 92 62.2 92.3C62.1 92.7 61.9 92.9 61.6 93.1C61.4 93.4 61.1 93.5 60.7 93.5ZM60.7 92.9C61 92.9 61.3 92.7 61.5 92.4C61.7 92.1 61.8 91.6 61.8 91C61.8 90.6 61.8 90.3 61.7 90C61.6 89.7 61.5 89.5 61.3 89.4C61.1 89.3 61 89.2 60.8 89.2C60.5 89.2 60.2 89.4 60 89.7C59.8 90 59.7 90.5 59.7 91.1C59.7 91.5 59.7 91.8 59.8 92.1C59.9 92.4 60 92.6 60.2 92.7C60.4 92.8 60.5 92.9 60.7 92.9Z" fill="#171717"/>
<path d="M69 67.4V66.9L70.6 65.2C70.8 65 70.9 64.9 71 64.7C71.1 64.6 71.2 64.4 71.3 64.3C71.4 64.2 71.4 64 71.4 63.9C71.4 63.7 71.4 63.6 71.3 63.5C71.2 63.4 71.1 63.3 71 63.2C70.9 63.1 70.7 63.1 70.6 63.1C70.4 63.1 70.3 63.1 70.2 63.2C70.1 63.3 70 63.4 69.9 63.5C69.8 63.6 69.8 63.8 69.8 63.9H69C69 63.6 69.1 63.4 69.2 63.1C69.3 62.9 69.5 62.7 69.7 62.6C69.9 62.5 70.2 62.4 70.5 62.4C70.8 62.4 71.1 62.5 71.3 62.6C71.5 62.7 71.7 62.9 71.8 63.1C71.9 63.3 72 63.5 72 63.8C72 64 72 64.1 71.9 64.3C71.8 64.5 71.7 64.7 71.6 64.9C71.4 65.1 71.2 65.4 70.9 65.6L70 66.6H72.1V67.2H69V67.4ZM74.7 67.5C74.3 67.5 74 67.4 73.8 67.2C73.5 67 73.3 66.7 73.2 66.4C73 66 72.9 65.6 72.9 65C72.9 64.5 73 64 73.1 63.7C73.2 63.3 73.4 63.1 73.7 62.9C74 62.7 74.3 62.6 74.6 62.6C74.9 62.6 75.3 62.7 75.5 62.9C75.8 63.1 76 63.4 76.1 63.7C76.2 64.1 76.3 64.5 76.3 65C76.3 65.5 76.2 66 76.1 66.3C76 66.7 75.8 66.9 75.5 67.1C75.3 67.4 75 67.5 74.7 67.5ZM74.7 66.9C75 66.9 75.3 66.7 75.5 66.4C75.7 66.1 75.8 65.6 75.8 65C75.8 64.6 75.8 64.3 75.7 64C75.6 63.7 75.5 63.5 75.3 63.4C75.1 63.3 75 63.2 74.8 63.2C74.5 63.2 74.2 63.4 74 63.7C73.8 64 73.7 64.5 73.7 65.1C73.7 65.5 73.7 65.8 73.8 66.1C73.9 66.4 74 66.6 74.2 66.7C74.3 66.8 74.4 66.9 74.7 66.9Z" fill="#171717"/>
<path d="M91.7 46.5C91.4 46.5 91.1 46.4 90.9 46.3C90.7 46.2 90.5 46 90.3 45.8C90.2 45.6 90.1 45.4 90.1 45.1H90.8C90.8 45.2 90.9 45.4 90.9 45.5C91 45.6 91.1 45.7 91.2 45.7C91.3 45.8 91.5 45.8 91.7 45.8C91.9 45.8 92.1 45.8 92.2 45.7C92.3 45.6 92.5 45.5 92.5 45.4C92.6 45.3 92.6 45.1 92.6 45C92.6 44.8 92.6 44.7 92.5 44.6C92.4 44.5 92.3 44.4 92.1 44.3C91.9 44.2 91.8 44.2 91.5 44.2H91.1V43.6H91.5C91.7 43.6 91.8 43.6 92 43.5C92.1 43.4 92.2 43.3 92.3 43.2C92.4 43.1 92.4 43 92.4 42.8C92.4 42.7 92.4 42.5 92.3 42.4C92.2 42.3 92.1 42.2 92 42.1C91.9 42 91.7 42 91.6 42C91.4 42 91.3 42 91.2 42.1C91.1 42.2 91 42.2 90.9 42.3C90.8 42.4 90.8 42.5 90.8 42.7H90.1C90.1 42.4 90.2 42.2 90.3 42C90.4 41.8 90.6 41.7 90.9 41.5C91.1 41.4 91.4 41.3 91.7 41.3C92 41.3 92.3 41.4 92.5 41.5C92.7 41.6 92.9 41.8 93 42C93.1 42.2 93.2 42.4 93.2 42.6C93.2 42.9 93.1 43.1 93 43.3C92.9 43.5 92.7 43.6 92.4 43.7C92.7 43.7 93 43.9 93.1 44.1C93.3 44.3 93.4 44.6 93.4 44.9C93.4 45.2 93.3 45.4 93.2 45.6C93.1 45.8 92.9 46 92.6 46.1C92.3 46.4 92 46.5 91.7 46.5ZM95.9 46.5C95.5 46.5 95.2 46.4 95 46.2C94.7 46 94.5 45.7 94.4 45.4C94.3 45.1 94.2 44.6 94.2 44.1C94.2 43.6 94.3 43.1 94.4 42.8C94.5 42.4 94.7 42.2 95 42C95.3 41.8 95.6 41.7 95.9 41.7C96.3 41.7 96.6 41.8 96.8 42C97.1 42.2 97.3 42.5 97.4 42.8C97.5 43.2 97.6 43.6 97.6 44.1C97.6 44.6 97.5 45.1 97.4 45.4C97.3 45.8 97.1 46 96.8 46.2C96.5 46.4 96.2 46.5 95.9 46.5ZM95.9 45.9C96.2 45.9 96.5 45.7 96.7 45.4C96.9 45.1 97 44.6 97 44C97 43.6 97 43.3 96.9 43C96.8 42.7 96.7 42.5 96.5 42.4C96.3 42.3 96.2 42.2 96 42.2C95.7 42.2 95.4 42.4 95.2 42.7C95 43 94.9 43.5 94.9 44.1C94.9 44.5 94.9 44.8 95 45.1C95.1 45.4 95.2 45.6 95.4 45.7C95.5 45.8 95.7 45.9 95.9 45.9Z" fill="#171717"/>
<path d="M115.9 32.5V31.9L117.9 28.7H118.4V29.5H118.1L116.6 31.8H119.4V32.4H115.9V32.5ZM118.2 33.4V32.3V32V28.6H118.9V33.3H118.2V33.4ZM121.9 33.5C121.5 33.5 121.2 33.4 121 33.2C120.7 33 120.5 32.7 120.4 32.4C120.3 32 120.2 31.6 120.2 31.1C120.2 30.6 120.3 30.1 120.4 29.8C120.5 29.4 120.7 29.2 121 29C121.3 28.8 121.6 28.7 121.9 28.7C122.3 28.7 122.6 28.8 122.8 29C123.1 29.2 123.3 29.5 123.4 29.8C123.5 30.2 123.6 30.6 123.6 31.1C123.6 31.6 123.5 32.1 123.4 32.4C123.3 32.8 123.1 33 122.8 33.2C122.6 33.4 122.3 33.5 121.9 33.5ZM121.9 32.9C122.2 32.9 122.5 32.7 122.7 32.4C122.9 32.1 123 31.6 123 31C123 30.6 123 30.3 122.9 30C122.8 29.7 122.7 29.5 122.5 29.4C122.3 29.3 122.2 29.2 122 29.2C121.7 29.2 121.4 29.4 121.2 29.7C121 30 120.9 30.5 120.9 31.1C120.9 31.5 120.9 31.8 121 32.1C121.1 32.4 121.2 32.6 121.4 32.7C121.5 32.8 121.7 32.9 121.9 32.9Z" fill="#171717"/>
<path d="M146.6 28.5C146.3 28.5 146.1 28.4 145.8 28.3C145.6 28.2 145.4 28 145.3 27.8C145.2 27.6 145.1 27.4 145.1 27.1H145.8C145.8 27.3 145.9 27.5 146.1 27.6C146.3 27.7 146.5 27.8 146.7 27.8C146.9 27.8 147 27.8 147.2 27.7C147.3 27.6 147.5 27.5 147.5 27.4C147.6 27.3 147.6 27.1 147.6 26.9C147.6 26.7 147.6 26.5 147.5 26.4C147.4 26.2 147.3 26.1 147.2 26C147.1 25.9 146.9 25.9 146.7 25.9C146.6 25.9 146.4 25.9 146.3 26C146.2 26 146 26.1 146 26.2L145.3 26.1L145.6 23.7H148.2V24.3H146.2L146 25.6C146.1 25.5 146.2 25.4 146.4 25.4C146.6 25.3 146.7 25.3 146.9 25.3C147.2 25.3 147.4 25.4 147.7 25.5C147.9 25.6 148.1 25.8 148.2 26.1C148.3 26.3 148.4 26.6 148.4 26.9C148.4 27.2 148.3 27.5 148.2 27.7C148.1 27.9 147.9 28.1 147.6 28.3C147.2 28.4 146.9 28.5 146.6 28.5ZM150.7 28.5C150.3 28.5 150 28.4 149.8 28.2C149.5 28 149.3 27.7 149.2 27.4C149 27 149 26.6 149 26C149 25.5 149.1 25 149.2 24.7C149.3 24.3 149.5 24.1 149.8 23.9C150.1 23.7 150.4 23.6 150.7 23.6C151.1 23.6 151.4 23.7 151.6 23.9C151.9 24.1 152.1 24.4 152.2 24.7C152.3 25.1 152.4 25.5 152.4 26C152.4 26.5 152.3 27 152.2 27.3C152.1 27.7 151.9 27.9 151.6 28.1C151.4 28.4 151.1 28.5 150.7 28.5ZM150.7 27.9C151 27.9 151.3 27.7 151.5 27.4C151.7 27.1 151.8 26.6 151.8 26C151.8 25.6 151.8 25.3 151.7 25C151.6 24.7 151.5 24.5 151.3 24.4C151.1 24.3 151 24.2 150.8 24.2C150.5 24.2 150.2 24.4 150 24.7C149.8 25 149.7 25.5 149.7 26.1C149.7 26.5 149.7 26.8 149.8 27.1C149.9 27.4 150 27.6 150.2 27.7C150.3 27.8 150.5 27.9 150.7 27.9Z" fill="#171717"/>
<path d="M239.8 117.7V122.4H239.1V118.4L238 119.1V118.4L239.2 117.6H239.8V117.7ZM242.7 122.5C242.3 122.5 242 122.4 241.8 122.2C241.5 122 241.3 121.7 241.2 121.4C241.1 121 241 120.6 241 120.1C241 119.6 241.1 119.1 241.2 118.8C241.3 118.4 241.5 118.2 241.8 118C242.1 117.8 242.4 117.7 242.7 117.7C243.1 117.7 243.4 117.8 243.6 118C243.9 118.2 244.1 118.5 244.2 118.8C244.3 119.2 244.4 119.6 244.4 120.1C244.4 120.6 244.3 121.1 244.2 121.4C244.1 121.8 243.9 122 243.6 122.2C243.4 122.4 243.1 122.5 242.7 122.5ZM242.7 121.9C243 121.9 243.3 121.7 243.5 121.4C243.7 121.1 243.8 120.6 243.8 120C243.8 119.6 243.8 119.3 243.7 119C243.6 118.7 243.5 118.5 243.3 118.4C243.1 118.3 243 118.2 242.8 118.2C242.5 118.2 242.2 118.4 242 118.7C241.8 119 241.7 119.5 241.7 120.1C241.7 120.5 241.7 120.8 241.8 121.1C241.9 121.4 242 121.6 242.2 121.7C242.4 121.8 242.5 121.9 242.7 121.9ZM246.9 122.5C246.5 122.5 246.2 122.4 246 122.2C245.7 122 245.5 121.7 245.4 121.4C245.3 121 245.2 120.6 245.2 120.1C245.2 119.6 245.3 119.1 245.4 118.8C245.5 118.4 245.7 118.2 246 118C246.3 117.8 246.6 117.7 246.9 117.7C247.3 117.7 247.6 117.8 247.8 118C248.1 118.2 248.3 118.5 248.4 118.8C248.5 119.2 248.6 119.6 248.6 120.1C248.6 120.6 248.5 121.1 248.4 121.4C248.3 121.8 248.1 122 247.8 122.2C247.6 122.4 247.3 122.5 246.9 122.5ZM246.9 121.9C247.2 121.9 247.5 121.7 247.7 121.4C247.9 121.1 248 120.6 248 120C248 119.6 248 119.3 247.9 119C247.8 118.7 247.7 118.5 247.5 118.4C247.3 118.3 247.2 118.2 247 118.2C246.7 118.2 246.4 118.4 246.2 118.7C246 119 245.9 119.5 245.9 120.1C245.9 120.5 245.9 120.8 246 121.1C246.1 121.4 246.2 121.6 246.4 121.7C246.5 121.8 246.7 121.9 246.9 121.9Z" fill="#171717"/>
<path d="M236.6 88.6C236.8 88.6 237 88.6 237.2 88.7C237.4 88.8 237.6 88.9 237.8 89.1C238 89.3 238.1 89.5 238.2 89.8C238.3 90.1 238.4 90.4 238.4 90.9C238.4 91.3 238.4 91.7 238.3 92C238.2 92.3 238.1 92.6 237.9 92.8C237.7 93 237.6 93.2 237.3 93.3C237.1 93.4 236.8 93.5 236.6 93.5C236.3 93.5 236.1 93.4 235.8 93.3C235.6 93.2 235.4 93 235.3 92.8C235.2 92.6 235.1 92.4 235 92.1H235.7C235.7 92.3 235.8 92.5 236 92.6C236.1 92.7 236.3 92.8 236.6 92.8C236.9 92.8 237.2 92.6 237.4 92.3C237.6 92 237.7 91.6 237.7 91C237.6 91.1 237.5 91.2 237.4 91.3C237.3 91.4 237.1 91.5 237 91.5C236.9 91.6 236.7 91.6 236.5 91.6C236.2 91.6 236 91.5 235.8 91.4C235.6 91.3 235.4 91.1 235.3 90.8C235.2 90.6 235.1 90.3 235.1 90C235.1 89.7 235.2 89.4 235.3 89.2C235.4 89 235.6 88.8 235.9 88.6C236 88.7 236.3 88.6 236.6 88.6ZM236.6 89.2C236.4 89.2 236.3 89.2 236.1 89.3C236 89.4 235.8 89.5 235.8 89.7C235.7 89.8 235.7 90 235.7 90.2C235.7 90.4 235.7 90.5 235.8 90.7C235.9 90.8 236 91 236.1 91.1C236.2 91.2 236.4 91.2 236.6 91.2C236.7 91.2 236.9 91.2 237 91.1C237.1 91 237.2 91 237.3 90.9C237.4 90.8 237.5 90.7 237.5 90.6C237.5 90.5 237.6 90.4 237.6 90.2C237.6 90 237.6 89.9 237.5 89.7C237.4 89.6 237.3 89.4 237.2 89.3C237 89.3 236.8 89.2 236.6 89.2ZM240.8 93.5C240.4 93.5 240.1 93.4 239.9 93.2C239.6 93 239.4 92.7 239.3 92.4C239.2 92 239.1 91.6 239.1 91.1C239.1 90.6 239.2 90.1 239.3 89.8C239.4 89.4 239.6 89.2 239.9 89C240.2 88.8 240.5 88.7 240.8 88.7C241.2 88.7 241.5 88.8 241.7 89C242 89.2 242.2 89.5 242.3 89.8C242.4 90.2 242.5 90.6 242.5 91.1C242.5 91.6 242.4 92.1 242.3 92.4C242.2 92.8 242 93 241.7 93.2C241.5 93.4 241.2 93.5 240.8 93.5ZM240.8 92.9C241.1 92.9 241.4 92.7 241.6 92.4C241.8 92.1 241.9 91.6 241.9 91C241.9 90.6 241.9 90.3 241.8 90C241.7 89.7 241.6 89.5 241.4 89.4C241.2 89.3 241.1 89.2 240.9 89.2C240.6 89.2 240.3 89.4 240.1 89.7C239.9 90 239.8 90.5 239.8 91.1C239.8 91.5 239.8 91.8 239.9 92.1C240 92.4 240.1 92.6 240.3 92.7C240.4 92.8 240.6 92.9 240.8 92.9Z" fill="#171717"/>
<path d="M222.6 67.5C222.3 67.5 222 67.4 221.7 67.3C221.4 67.2 221.3 67 221.1 66.8C221 66.6 220.9 66.4 220.9 66.1C220.9 65.9 220.9 65.7 221 65.5C221.1 65.3 221.2 65.2 221.3 65.1C221.4 65 221.6 64.9 221.8 64.9C221.6 64.8 221.4 64.7 221.2 64.5C221.1 64.3 221 64.1 221 63.8C221 63.6 221.1 63.3 221.2 63.2C221.3 63 221.5 62.9 221.7 62.7C221.9 62.6 222.2 62.5 222.5 62.5C222.8 62.5 223 62.6 223.3 62.7C223.5 62.8 223.7 63 223.8 63.2C223.9 63.4 224 63.6 224 63.8C224 64.1 223.9 64.3 223.8 64.5C223.7 64.7 223.5 64.8 223.2 64.9C223.4 64.9 223.5 65 223.7 65.1C223.8 65.2 224 65.4 224 65.5C224.1 65.7 224.1 65.9 224.1 66.1C224.1 66.4 224 66.6 223.9 66.8C223.8 67 223.6 67.2 223.3 67.3C223.2 67.4 223 67.5 222.6 67.5ZM222.6 66.9C222.8 66.9 223 66.9 223.1 66.8C223.2 66.7 223.4 66.6 223.4 66.5C223.5 66.4 223.5 66.2 223.5 66.1C223.5 65.9 223.5 65.8 223.4 65.7C223.3 65.6 223.2 65.5 223.1 65.4C223 65.3 222.8 65.3 222.6 65.3C222.4 65.3 222.2 65.3 222.1 65.4C222 65.5 221.8 65.6 221.8 65.7C221.7 65.8 221.7 66 221.7 66.1C221.7 66.3 221.7 66.4 221.8 66.5C221.9 66.6 222 66.7 222.1 66.8C222.3 66.9 222.4 66.9 222.6 66.9ZM222.6 64.7C222.8 64.7 222.9 64.7 223 64.6C223.1 64.5 223.2 64.4 223.3 64.3C223.4 64.2 223.4 64.1 223.4 63.9C223.4 63.8 223.4 63.6 223.3 63.5C223.2 63.4 223.1 63.3 223 63.2C222.9 63.1 222.7 63.1 222.6 63.1C222.4 63.1 222.3 63.1 222.2 63.2C222.1 63.3 222 63.3 221.9 63.5C221.8 63.6 221.8 63.7 221.8 63.9C221.8 64.1 221.8 64.2 221.9 64.3C222 64.4 222.1 64.5 222.2 64.6C222.3 64.7 222.5 64.7 222.6 64.7ZM226.8 67.5C226.4 67.5 226.1 67.4 225.9 67.2C225.6 67 225.4 66.7 225.3 66.4C225.2 66.1 225.1 65.6 225.1 65.1C225.1 64.6 225.2 64.1 225.3 63.8C225.4 63.4 225.6 63.2 225.9 63C226.2 62.8 226.5 62.7 226.8 62.7C227.2 62.7 227.5 62.8 227.7 63C228 63.2 228.2 63.5 228.3 63.8C228.4 64.2 228.5 64.6 228.5 65.1C228.5 65.6 228.4 66.1 228.3 66.4C228.2 66.8 228 67 227.7 67.2C227.5 67.4 227.1 67.5 226.8 67.5ZM226.8 66.9C227.1 66.9 227.4 66.7 227.6 66.4C227.8 66.1 227.9 65.6 227.9 65C227.9 64.6 227.9 64.3 227.8 64C227.7 63.7 227.6 63.5 227.4 63.4C227.2 63.3 227.1 63.2 226.9 63.2C226.6 63.2 226.3 63.4 226.1 63.7C225.9 64 225.8 64.5 225.8 65.1C225.8 65.5 225.8 65.8 225.9 66.1C226 66.4 226.1 66.6 226.3 66.7C226.4 66.8 226.6 66.9 226.8 66.9Z" fill="#171717"/>
<path d="M201.2 46.4L203.3 42.3H200.9V41.7H204V42.3L201.9 46.4H201.2ZM206.3 46.5C205.9 46.5 205.6 46.4 205.4 46.2C205.1 46 204.9 45.7 204.8 45.4C204.7 45.1 204.6 44.6 204.6 44.1C204.6 43.6 204.7 43.1 204.8 42.8C204.9 42.4 205.1 42.2 205.4 42C205.7 41.8 206 41.7 206.3 41.7C206.6 41.7 207 41.8 207.2 42C207.5 42.2 207.7 42.5 207.8 42.8C207.9 43.2 208 43.6 208 44.1C208 44.6 207.9 45.1 207.8 45.4C207.7 45.8 207.5 46 207.2 46.2C207 46.4 206.7 46.5 206.3 46.5ZM206.3 45.9C206.6 45.9 206.9 45.7 207.1 45.4C207.3 45.1 207.4 44.6 207.4 44C207.4 43.6 207.4 43.3 207.3 43C207.2 42.7 207.1 42.5 206.9 42.4C206.7 42.3 206.6 42.2 206.4 42.2C206.1 42.2 205.8 42.4 205.6 42.7C205.4 43 205.3 43.5 205.3 44.1C205.3 44.5 205.3 44.8 205.4 45.1C205.5 45.4 205.6 45.6 205.8 45.7C205.9 45.8 206.1 45.9 206.3 45.9Z" fill="#171717"/>
<path d="M176.7 33.5C176.5 33.5 176.3 33.5 176.1 33.4C175.9 33.3 175.7 33.2 175.5 33C175.3 32.8 175.2 32.6 175.1 32.3C175 32 175 31.6 175 31.2C175 30.8 175 30.4 175.1 30.1C175.2 29.8 175.3 29.5 175.5 29.3C175.7 29.1 175.8 28.9 176.1 28.8C176.3 28.7 176.6 28.6 176.8 28.6C177.1 28.6 177.3 28.7 177.6 28.8C177.8 28.9 178 29.1 178.1 29.3C178.2 29.5 178.3 29.7 178.4 30H177.7C177.7 29.8 177.6 29.6 177.4 29.5C177.3 29.4 177.1 29.3 176.8 29.3C176.5 29.3 176.2 29.5 176 29.8C175.8 30.1 175.7 30.5 175.7 31.1C175.8 31 175.9 30.9 176 30.8C176.1 30.7 176.3 30.6 176.4 30.6C176.5 30.5 176.7 30.5 176.9 30.5C177.2 30.5 177.4 30.6 177.6 30.7C177.8 30.8 178 31 178.1 31.2C178.2 31.4 178.3 31.7 178.3 32C178.3 32.3 178.2 32.6 178.1 32.8C178 33 177.8 33.2 177.5 33.4C177.3 33.4 177 33.5 176.7 33.5ZM176.7 32.9C176.9 32.9 177 32.9 177.2 32.8C177.3 32.7 177.5 32.6 177.5 32.4C177.6 32.2 177.6 32.1 177.6 31.9C177.6 31.7 177.6 31.6 177.5 31.4C177.4 31.3 177.3 31.1 177.2 31C177.1 30.9 176.9 30.9 176.7 30.9C176.6 30.9 176.4 30.9 176.3 31C176.2 31.1 176.1 31.1 176 31.2C175.9 31.3 175.8 31.4 175.8 31.5C175.7 31.6 175.7 31.7 175.7 31.9C175.7 32.1 175.7 32.2 175.8 32.4C175.9 32.6 176 32.7 176.1 32.8C176.3 32.8 176.5 32.9 176.7 32.9ZM180.8 33.5C180.4 33.5 180.1 33.4 179.9 33.2C179.6 33 179.4 32.7 179.3 32.4C179.2 32 179.1 31.6 179.1 31.1C179.1 30.6 179.2 30.1 179.3 29.8C179.4 29.4 179.6 29.2 179.9 29C180.2 28.8 180.5 28.7 180.8 28.7C181.2 28.7 181.5 28.8 181.7 29C182 29.2 182.2 29.5 182.3 29.8C182.4 30.2 182.5 30.6 182.5 31.1C182.5 31.6 182.4 32.1 182.3 32.4C182.2 32.8 182 33 181.7 33.2C181.5 33.4 181.2 33.5 180.8 33.5ZM180.8 32.9C181.1 32.9 181.4 32.7 181.6 32.4C181.8 32.1 181.9 31.6 181.9 31C181.9 30.6 181.9 30.3 181.8 30C181.7 29.7 181.6 29.5 181.4 29.4C181.2 29.3 181.1 29.2 180.9 29.2C180.6 29.2 180.3 29.4 180.1 29.7C179.9 30 179.8 30.5 179.8 31.1C179.8 31.5 179.8 31.8 179.9 32.1C180 32.4 180.1 32.6 180.3 32.7C180.4 32.8 180.6 32.9 180.8 32.9Z" fill="#171717"/>
<path d="M3.9 76.7C3.8 76.5 3.8 76.4 3.7 76.3C3.6 76.2 3.5 76.1 3.4 76C3.3 75.9 3.1 75.8 3 75.8C2.8 75.8 2.7 75.7 2.5 75.7C2.2 75.7 1.9 75.8 1.7 75.9C1.4 76 1.2 76.3 1 76.6C0.9 76.9 0.8 77.3 0.8 77.7C0.8 78.1 0.9 78.5 1 78.8C1.1 79.1 1.3 79.3 1.6 79.5C1.9 79.7 2.1 79.7 2.5 79.7C2.8 79.7 3.1 79.6 3.3 79.5C3.5 79.4 3.7 79.2 3.8 79C3.9 78.8 4 78.6 4 78.3H4.2H2.6V77.6H4.7V78.2C4.7 78.7 4.6 79.1 4.4 79.4C4.3 79.8 4 80 3.7 80.2C3.4 80.4 3 80.5 2.5 80.5C2 80.5 1.6 80.4 1.2 80.2C0.8 80 0.5 79.7 0.3 79.2C0.1 78.8 0 78.3 0 77.7C0 77.3 0.1 76.9 0.2 76.5C0.3 76.2 0.5 75.9 0.7 75.6C0.9 75.4 1.2 75.2 1.5 75C1.8 74.9 2.1 74.8 2.5 74.8C2.8 74.8 3.1 74.8 3.3 74.9C3.6 75 3.8 75.1 4 75.3C4.2 75.5 4.4 75.6 4.5 75.9C4.6 76.1 4.7 76.4 4.8 76.6H3.9V76.7ZM7.5 80.5C7.1 80.5 6.8 80.4 6.5 80.2C6.2 80 6 79.8 5.8 79.5C5.6 79.2 5.6 78.8 5.6 78.4C5.6 78 5.7 77.6 5.8 77.3C6 77 6.2 76.7 6.5 76.6C6.8 76.4 7.1 76.3 7.5 76.3C7.9 76.3 8.2 76.4 8.5 76.6C8.8 76.8 9 77 9.2 77.3C9.4 77.6 9.4 78 9.4 78.4C9.4 78.8 9.3 79.2 9.2 79.5C9 79.8 8.7 80 8.5 80.2C8.2 80.4 7.8 80.5 7.5 80.5ZM7.5 79.8C7.7 79.8 8 79.7 8.1 79.6C8.3 79.5 8.4 79.3 8.5 79.1C8.6 78.9 8.6 78.6 8.6 78.4C8.6 78.1 8.6 77.9 8.5 77.7C8.4 77.5 8.3 77.3 8.1 77.2C7.9 77.1 7.7 77 7.5 77C7.2 77 7 77.1 6.9 77.2C6.7 77.3 6.6 77.5 6.5 77.7C6.4 77.9 6.4 78.2 6.4 78.4C6.4 78.7 6.4 78.9 6.5 79.1C6.6 79.3 6.7 79.5 6.9 79.6C7 79.8 7.2 79.8 7.5 79.8ZM12 80.5C11.6 80.5 11.3 80.4 11 80.2C10.7 80 10.5 79.8 10.3 79.5C10.1 79.2 10.1 78.8 10.1 78.4C10.1 78 10.2 77.6 10.3 77.3C10.5 77 10.7 76.7 11 76.6C11.3 76.4 11.6 76.3 12 76.3C12.4 76.3 12.7 76.4 13 76.6C13.3 76.8 13.5 77 13.7 77.3C13.9 77.6 13.9 78 13.9 78.4C13.9 78.8 13.8 79.2 13.7 79.5C13.5 79.8 13.3 80.1 13 80.2C12.7 80.4 12.4 80.5 12 80.5ZM12 79.8C12.2 79.8 12.5 79.7 12.6 79.6C12.8 79.5 12.9 79.3 13 79.1C13.1 78.9 13.1 78.6 13.1 78.4C13.1 78.1 13.1 77.9 13 77.7C12.9 77.5 12.8 77.3 12.6 77.2C12.4 77.1 12.2 77 12 77C11.7 77 11.5 77.1 11.4 77.2C11.2 77.3 11.1 77.5 11 77.7C10.9 77.9 10.9 78.2 10.9 78.4C10.9 78.7 10.9 78.9 11 79.1C11.1 79.3 11.2 79.5 11.4 79.6C11.5 79.8 11.7 79.8 12 79.8ZM16.3 80.5C16 80.5 15.7 80.4 15.4 80.2C15.1 80 14.9 79.8 14.8 79.5C14.7 79.2 14.6 78.8 14.6 78.4C14.6 78 14.7 77.6 14.8 77.3C14.9 77 15.2 76.7 15.4 76.6C15.7 76.4 16 76.3 16.3 76.3C16.6 76.3 16.8 76.3 16.9 76.4C17.1 76.5 17.2 76.6 17.3 76.7C17.4 76.8 17.5 76.9 17.5 77V75H18.3V80.5H17.5V79.9H17.4C17.4 80 17.3 80.1 17.2 80.2C17.1 80.3 17 80.4 16.8 80.5C16.8 80.4 16.5 80.5 16.3 80.5ZM16.5 79.8C16.7 79.8 16.9 79.7 17.1 79.6C17.3 79.5 17.4 79.3 17.5 79.1C17.6 78.9 17.6 78.6 17.6 78.3C17.6 78 17.6 77.8 17.5 77.6C17.4 77.4 17.3 77.2 17.1 77.1C16.9 77 16.7 76.9 16.5 76.9C16.3 76.9 16.1 77 15.9 77.1C15.7 77.2 15.6 77.4 15.5 77.6C15.4 77.8 15.4 78.1 15.4 78.3C15.4 78.6 15.4 78.8 15.5 79C15.6 79.2 15.7 79.4 15.9 79.5C16 79.7 16.2 79.8 16.5 79.8Z" fill="#171717"/>
<path d="M280.7 75L282.2 79.4H282.3L283.8 75H284.7L282.7 80.5H281.7L279.7 75H280.7ZM286.7 80.5C286.3 80.5 285.9 80.4 285.7 80.2C285.4 80 285.2 79.8 285 79.5C284.8 79.2 284.8 78.8 284.8 78.4C284.8 78 284.9 77.6 285 77.3C285.2 77 285.4 76.7 285.7 76.6C286 76.4 286.3 76.3 286.7 76.3C286.9 76.3 287.2 76.3 287.4 76.4C287.6 76.5 287.8 76.6 288 76.8C288.2 77 288.3 77.2 288.4 77.4C288.5 77.7 288.5 78 288.5 78.3V78.6H285.2V78H287.7C287.7 77.8 287.7 77.6 287.6 77.4C287.5 77.2 287.4 77.1 287.2 77C287 76.9 286.9 76.9 286.7 76.9C286.5 76.9 286.3 77 286.1 77.1C285.9 77.2 285.8 77.4 285.7 77.5C285.6 77.7 285.6 77.9 285.6 78.1V78.6C285.6 78.9 285.6 79.1 285.7 79.3C285.8 79.5 285.9 79.6 286.1 79.7C286.3 79.8 286.5 79.8 286.7 79.8C286.9 79.8 287 79.8 287.1 79.7C287.2 79.7 287.3 79.6 287.4 79.5C287.5 79.4 287.6 79.3 287.6 79.2L288.4 79.3C288.3 79.5 288.2 79.7 288.1 79.9C287.9 80.1 287.8 80.2 287.5 80.3C287.3 80.4 287 80.5 286.7 80.5ZM289.4 80.4V76.3H290.2V77C290.3 76.8 290.4 76.6 290.6 76.5C290.8 76.4 291 76.3 291.2 76.3C291.2 76.3 291.3 76.3 291.4 76.3C291.5 76.3 291.5 76.3 291.6 76.3V77C291.6 77 291.5 77 291.4 77C291.3 77 291.2 77 291.2 77C291 77 290.8 77 290.7 77.1C290.6 77.2 290.4 77.3 290.4 77.4C290.3 77.5 290.3 77.7 290.3 77.9V80.4H289.4V80.4ZM292.9 81.9C292.8 81.9 292.7 81.9 292.6 81.9C292.5 81.9 292.4 81.9 292.4 81.8L292.6 81.1C292.7 81.1 292.9 81.2 293 81.2C293.1 81.2 293.2 81.2 293.3 81.1C293.4 81 293.5 80.9 293.5 80.7L293.6 80.4L292.1 76.3H293L294 79.5L295 76.3H295.9L294.2 80.9C294.1 81.1 294 81.3 293.9 81.4C293.8 81.5 293.6 81.7 293.5 81.7C293.3 81.9 293.1 81.9 292.9 81.9ZM298.7 80.4V75H300.7C301.1 75 301.4 75.1 301.7 75.2C302 75.3 302.1 75.5 302.3 75.7C302.4 75.9 302.5 76.2 302.5 76.4C302.5 76.6 302.5 76.8 302.4 77C302.3 77.2 302.2 77.3 302.1 77.4C302 77.5 301.8 77.6 301.6 77.6V77.7C301.8 77.7 302 77.8 302.1 77.9C302.3 78 302.4 78.2 302.5 78.4C302.6 78.6 302.7 78.8 302.7 79.1C302.7 79.4 302.6 79.6 302.5 79.9C302.4 80.1 302.2 80.3 301.9 80.4C301.6 80.5 301.3 80.6 300.9 80.6H298.7V80.4ZM299.5 79.7H300.7C301.1 79.7 301.4 79.6 301.5 79.5C301.7 79.3 301.8 79.2 301.8 78.9C301.8 78.7 301.8 78.6 301.7 78.4C301.6 78.3 301.5 78.1 301.3 78.1C301.1 78 301 78 300.7 78H299.5V79.7ZM299.5 77.3H300.6C300.8 77.3 301 77.3 301.1 77.2C301.2 77.1 301.4 77 301.5 76.9C301.6 76.8 301.6 76.6 301.6 76.4C301.6 76.2 301.5 76 301.4 75.8C301.2 75.6 301 75.6 300.7 75.6H299.6V77.3H299.5ZM304.7 80.5C304.4 80.5 304.2 80.5 304 80.4C303.8 80.3 303.6 80.2 303.5 80C303.4 79.8 303.3 79.6 303.3 79.3C303.3 79.1 303.3 78.9 303.4 78.7C303.5 78.6 303.6 78.4 303.8 78.3C303.9 78.2 304.1 78.1 304.3 78.1C304.5 78.1 304.7 78 304.9 78C305.1 78 305.3 77.9 305.5 77.9C305.7 77.9 305.8 77.8 305.8 77.8C305.9 77.8 305.9 77.7 305.9 77.6C305.9 77.4 305.8 77.2 305.7 77.1C305.6 77 305.4 76.9 305.1 76.9C304.8 76.9 304.6 77 304.5 77.1C304.3 77.2 304.2 77.3 304.2 77.5L303.5 77.3C303.6 77.1 303.7 76.9 303.9 76.7C304.1 76.5 304.3 76.4 304.5 76.4C304.7 76.3 305 76.3 305.2 76.3C305.4 76.3 305.5 76.3 305.7 76.4C305.9 76.4 306.1 76.5 306.2 76.6C306.4 76.7 306.5 76.8 306.6 77C306.7 77.2 306.8 77.4 306.8 77.7V80.4H306V79.8C305.9 79.9 305.9 80 305.8 80.1C305.7 80.2 305.6 80.3 305.4 80.3C305.1 80.5 304.9 80.5 304.7 80.5ZM304.9 79.9C305.1 79.9 305.3 79.9 305.5 79.8C305.7 79.7 305.8 79.6 305.9 79.5C306 79.4 306 79.2 306 79V78.5C306 78.5 305.9 78.6 305.8 78.6C305.7 78.6 305.6 78.6 305.5 78.7C305.4 78.7 305.3 78.7 305.2 78.7C305.1 78.7 305 78.7 305 78.7C304.8 78.7 304.7 78.8 304.6 78.8C304.5 78.8 304.4 78.9 304.3 79C304.2 79.1 304.2 79.2 304.2 79.3C304.2 79.5 304.3 79.6 304.4 79.7C304.5 79.8 304.6 79.9 304.9 79.9ZM309.3 80.5C309 80.5 308.7 80.4 308.4 80.2C308.1 80 307.9 79.8 307.8 79.5C307.7 79.2 307.6 78.8 307.6 78.4C307.6 78 307.7 77.6 307.8 77.3C307.9 77 308.2 76.7 308.4 76.6C308.7 76.4 309 76.3 309.3 76.3C309.6 76.3 309.8 76.3 309.9 76.4C310.1 76.5 310.2 76.6 310.3 76.7C310.4 76.8 310.5 76.9 310.5 77V75H311.3V80.5H310.5V79.9H310.4C310.4 80 310.3 80.1 310.2 80.2C310.1 80.3 310 80.4 309.8 80.5C309.8 80.4 309.5 80.5 309.3 80.5ZM309.5 79.8C309.7 79.8 309.9 79.7 310.1 79.6C310.3 79.5 310.4 79.3 310.5 79.1C310.6 78.9 310.6 78.6 310.6 78.3C310.6 78 310.6 77.8 310.5 77.6C310.4 77.4 310.3 77.2 310.1 77.1C309.9 77 309.7 76.9 309.5 76.9C309.3 76.9 309.1 77 308.9 77.1C308.7 77.2 308.6 77.4 308.5 77.6C308.4 77.8 308.4 78.1 308.4 78.3C308.4 78.6 308.4 78.8 308.5 79C308.6 79.2 308.7 79.4 308.9 79.5C309 79.7 309.2 79.8 309.5 79.8Z" fill="#171717"/>
<path d="M58.6 8.39999H57.7L59.7 2.89999H60.7L62.7 8.39999H61.8L60.3 3.89999L58.6 8.39999ZM58.8 6.29999H61.6V6.99999H58.8V6.29999ZM66.4 4.29999L64.9 8.39999H64L62.5 4.29999H63.4L64.4 7.39999L65.4 4.29999H66.4V4.29999ZM68.7 8.49999C68.3 8.49999 67.9 8.39999 67.7 8.19999C67.4 7.99999 67.2 7.79999 67 7.49999C66.8 7.19999 66.8 6.79999 66.8 6.39999C66.8 5.99999 66.9 5.59999 67 5.29999C67.2 4.99999 67.4 4.69999 67.7 4.59999C68 4.39999 68.3 4.29999 68.7 4.29999C68.9 4.29999 69.2 4.29999 69.4 4.39999C69.6 4.49999 69.8 4.59999 70 4.79999C70.2 4.99999 70.3 5.19999 70.4 5.39999C70.5 5.69999 70.5 5.99999 70.5 6.29999V6.59999H67.2V5.99999H69.7C69.7 5.79999 69.7 5.59999 69.6 5.39999C69.5 5.19999 69.4 5.09999 69.2 4.99999C69 4.89999 68.9 4.89999 68.7 4.89999C68.5 4.89999 68.3 4.99999 68.1 5.09999C67.9 5.19999 67.8 5.39999 67.7 5.49999C67.6 5.69999 67.6 5.89999 67.6 6.09999V6.59999C67.6 6.89999 67.6 7.09999 67.7 7.29999C67.8 7.49999 67.9 7.59999 68.1 7.69999C68.3 7.79999 68.5 7.79999 68.7 7.79999C68.9 7.79999 69 7.79999 69.1 7.69999C69.2 7.69999 69.3 7.59999 69.4 7.49999C69.5 7.39999 69.6 7.29999 69.6 7.19999L70.4 7.29999C70.3 7.49999 70.2 7.69999 70.1 7.89999C69.9 8.09999 69.8 8.19999 69.5 8.29999C69.3 8.39999 69 8.49999 68.7 8.49999ZM71.4 8.39999V4.29999H72.2V4.99999C72.3 4.79999 72.4 4.59999 72.6 4.49999C72.8 4.39999 73 4.29999 73.2 4.29999C73.2 4.29999 73.3 4.29999 73.4 4.29999C73.5 4.29999 73.5 4.29999 73.6 4.29999V4.99999C73.6 4.99999 73.5 4.99999 73.4 4.99999C73.3 4.99999 73.2 4.99999 73.2 4.99999C73 4.99999 72.8 4.99999 72.7 5.09999C72.6 5.19999 72.4 5.29999 72.4 5.39999C72.3 5.49999 72.3 5.69999 72.3 5.89999V8.39999H71.4V8.39999ZM75.4 8.49999C75.1 8.49999 74.9 8.49999 74.7 8.39999C74.5 8.29999 74.3 8.19999 74.2 7.99999C74.1 7.69999 74 7.49999 74 7.19999C74 6.99999 74 6.79999 74.1 6.59999C74.2 6.49999 74.3 6.29999 74.5 6.19999C74.7 6.09999 74.8 5.99999 75 5.99999C75.2 5.99999 75.4 5.89999 75.6 5.89999C75.8 5.99999 76 5.99999 76.2 5.99999C76.4 5.99999 76.5 5.89999 76.5 5.89999C76.6 5.89999 76.6 5.79999 76.6 5.69999C76.6 5.49999 76.5 5.29999 76.4 5.19999C76.3 5.09999 76.1 4.99999 75.8 4.99999C75.5 4.99999 75.3 5.09999 75.2 5.19999C75 5.29999 74.9 5.39999 74.9 5.59999L74.2 5.39999C74.3 5.19999 74.4 4.99999 74.6 4.79999C74.8 4.59999 75 4.49999 75.2 4.49999C75.4 4.39999 75.7 4.39999 75.9 4.39999C76.1 4.39999 76.2 4.39999 76.4 4.49999C76.6 4.49999 76.8 4.59999 76.9 4.69999C77 4.59999 77.2 4.79999 77.3 4.99999C77.4 5.19999 77.5 5.39999 77.5 5.69999V8.39999H76.7V7.79999C76.6 7.89999 76.6 7.99999 76.5 8.09999C76.4 8.19999 76.3 8.29999 76.1 8.29999C75.8 8.49999 75.6 8.49999 75.4 8.49999ZM75.6 7.89999C75.8 7.89999 76 7.89999 76.2 7.79999C76.4 7.69999 76.5 7.59999 76.6 7.49999C76.7 7.39999 76.7 7.19999 76.7 6.99999V6.39999C76.7 6.39999 76.6 6.49999 76.5 6.49999C76.4 6.49999 76.3 6.49999 76.2 6.59999C76.1 6.59999 76 6.59999 75.9 6.59999C75.8 6.59999 75.7 6.59999 75.7 6.59999C75.5 6.59999 75.4 6.69999 75.3 6.69999C75.2 6.69999 75.1 6.79999 75 6.89999C74.9 6.99999 74.9 7.09999 74.9 7.19999C74.9 7.39999 75 7.49999 75.1 7.59999C75.2 7.79999 75.3 7.89999 75.6 7.89999ZM80.2 9.99999C79.9 9.99999 79.6 9.99999 79.4 9.89999C79.2 9.79999 79 9.69999 78.8 9.59999C78.7 9.49999 78.5 9.29999 78.5 9.09999L79.2 8.79999C79.2 8.89999 79.3 8.99999 79.4 8.99999C79.5 9.09999 79.6 9.19999 79.7 9.19999C79.8 9.29999 80 9.29999 80.2 9.29999C80.5 9.29999 80.8 9.19999 80.9 9.09999C81.1 8.99999 81.2 8.69999 81.2 8.39999V7.69999H81.1C81.1 7.79999 81 7.89999 80.9 7.99999C80.8 8.09999 80.7 8.19999 80.5 8.29999C80.3 8.39999 80.1 8.39999 79.9 8.39999C79.6 8.39999 79.3 8.29999 79 8.19999C78.7 7.99999 78.5 7.79999 78.4 7.49999C78.3 7.19999 78.2 6.79999 78.2 6.39999C78.2 5.99999 78.3 5.59999 78.4 5.29999C78.5 4.99999 78.8 4.79999 79 4.59999C79.3 4.39999 79.6 4.29999 79.9 4.29999C80.2 4.29999 80.4 4.29999 80.5 4.39999C80.7 4.49999 80.8 4.59999 80.9 4.69999C81 4.79999 81.1 4.89999 81.1 4.99999H81.2V4.29999H82V8.49999C82 8.89999 81.9 9.09999 81.8 9.39999C81.6 9.59999 81.4 9.79999 81.1 9.89999C80.8 9.99999 80.5 9.99999 80.2 9.99999ZM80.2 7.69999C80.4 7.69999 80.6 7.59999 80.8 7.49999C81 7.39999 81.1 7.19999 81.2 6.99999C81.3 6.79999 81.3 6.59999 81.3 6.29999C81.3 5.99999 81.3 5.79999 81.2 5.59999C81.1 5.39999 81 5.19999 80.8 5.09999C80.6 4.99999 80.4 4.89999 80.2 4.89999C80 4.89999 79.8 4.99999 79.6 5.09999C79.4 5.19999 79.3 5.39999 79.2 5.59999C79.1 5.79999 79.1 5.99999 79.1 6.29999C79.1 6.59999 79.1 6.79999 79.2 6.99999C79.3 7.19999 79.4 7.39999 79.6 7.49999C79.7 7.59999 79.9 7.69999 80.2 7.69999ZM84.9 8.49999C84.5 8.49999 84.1 8.39999 83.9 8.19999C83.6 7.99999 83.4 7.79999 83.2 7.49999C83 7.19999 83 6.79999 83 6.39999C83 5.99999 83.1 5.59999 83.2 5.29999C83.4 4.99999 83.6 4.69999 83.9 4.59999C84.2 4.39999 84.5 4.29999 84.9 4.29999C85.1 4.29999 85.4 4.29999 85.6 4.39999C85.8 4.49999 86 4.59999 86.2 4.79999C86.4 4.99999 86.5 5.19999 86.6 5.39999C86.7 5.69999 86.7 5.99999 86.7 6.29999V6.59999H83.4V5.99999H85.9C85.9 5.79999 85.9 5.59999 85.8 5.39999C85.7 5.19999 85.6 5.09999 85.4 4.99999C85.2 4.99999 85 4.89999 84.8 4.89999C84.6 4.89999 84.4 4.99999 84.2 5.09999C84 5.19999 83.9 5.39999 83.8 5.49999C83.7 5.69999 83.7 5.89999 83.7 6.09999V6.59999C83.7 6.89999 83.7 7.09999 83.8 7.29999C83.9 7.49999 84 7.59999 84.2 7.69999C84.4 7.79999 84.6 7.79999 84.8 7.79999C85 7.79999 85.1 7.79999 85.2 7.69999C85.3 7.69999 85.4 7.59999 85.5 7.49999C85.6 7.39999 85.7 7.29999 85.7 7.19999L86.5 7.29999C86.4 7.49999 86.3 7.69999 86.2 7.89999C86 8.09999 85.9 8.19999 85.6 8.29999C85.4 8.39999 85.2 8.49999 84.9 8.49999Z" fill="#171717"/>
<path d="M208.2 8.4V3H210.2C210.6 3 210.9 3.1 211.2 3.2C211.5 3.3 211.6 3.5 211.8 3.7C211.9 3.9 212 4.2 212 4.4C212 4.6 212 4.8 211.9 5C211.8 5.2 211.7 5.3 211.6 5.4C211.5 5.5 211.3 5.6 211.1 5.6V5.7C211.3 5.7 211.5 5.8 211.6 5.9C211.8 6 211.9 6.2 212 6.4C212.1 6.6 212.2 6.8 212.2 7.1C212.2 7.4 212.1 7.6 212 7.9C211.9 8.1 211.7 8.3 211.4 8.4C211.1 8.5 210.8 8.6 210.4 8.6H208.2V8.4ZM209 7.7H210.2C210.6 7.7 210.9 7.6 211 7.5C211.2 7.3 211.3 7.2 211.3 6.9C211.3 6.7 211.3 6.6 211.2 6.4C211.1 6.3 211 6.1 210.8 6.1C210.6 6 210.4 6 210.2 6H209V7.7ZM209 5.3H210.1C210.3 5.3 210.5 5.3 210.6 5.2C210.7 5.1 210.9 5 211 4.9C211.1 4.8 211.1 4.6 211.1 4.4C211.1 4.2 211 4 210.9 3.8C210.7 3.6 210.5 3.6 210.2 3.6H209V5.3ZM214.2 8.5C213.9 8.5 213.7 8.5 213.5 8.4C213.3 8.3 213.1 8.2 213 8C212.9 7.8 212.8 7.6 212.8 7.3C212.8 7.1 212.8 6.9 212.9 6.7C213 6.5 213.1 6.4 213.3 6.3C213.4 6.2 213.6 6.1 213.8 6.1C214 6.1 214.2 6 214.4 6C214.6 6 214.8 5.9 215 5.9C215.2 5.9 215.3 5.8 215.3 5.8C215.4 5.8 215.4 5.7 215.4 5.6C215.4 5.4 215.3 5.2 215.2 5.1C215.1 5 214.9 4.9 214.6 4.9C214.3 4.9 214.1 5 214 5.1C213.8 5.2 213.7 5.3 213.7 5.5L213 5.3C213.1 5.1 213.2 4.9 213.4 4.7C213.6 4.5 213.8 4.4 214 4.4C214.2 4.3 214.5 4.3 214.7 4.3C214.9 4.3 215 4.3 215.2 4.4C215.4 4.4 215.6 4.5 215.7 4.6C215.9 4.7 216 4.8 216.1 5C216.2 5.2 216.3 5.4 216.3 5.7V8.4H215.5V7.8C215.4 7.9 215.4 8 215.3 8.1C215.2 8.2 215.1 8.3 214.9 8.3C214.6 8.5 214.4 8.5 214.2 8.5ZM214.4 7.9C214.6 7.9 214.8 7.9 215 7.8C215.2 7.7 215.3 7.6 215.4 7.5C215.5 7.4 215.5 7.2 215.5 7V6.4C215.5 6.4 215.4 6.5 215.3 6.5C215.2 6.5 215.1 6.5 215 6.6C214.9 6.6 214.8 6.6 214.7 6.6C214.6 6.6 214.5 6.6 214.5 6.6C214.3 6.6 214.2 6.7 214.1 6.7C214 6.7 213.9 6.8 213.8 6.9C213.7 7 213.7 7.1 213.7 7.2C213.7 7.4 213.8 7.5 213.9 7.6C214 7.8 214.2 7.9 214.4 7.9ZM218.8 8.5C218.5 8.5 218.2 8.4 217.9 8.2C217.6 8 217.4 7.8 217.3 7.5C217.2 7.2 217.1 6.8 217.1 6.4C217.1 6 217.2 5.6 217.3 5.3C217.4 5 217.7 4.7 217.9 4.6C218.2 4.4 218.5 4.3 218.8 4.3C219.1 4.3 219.3 4.3 219.4 4.4C219.6 4.5 219.7 4.6 219.8 4.7C219.9 4.8 220 4.9 220 5V3H220.8V8.5H220V7.8C220 7.9 219.9 8 219.8 8.1C219.7 8.2 219.6 8.3 219.4 8.4C219.3 8.4 219.1 8.5 218.8 8.5ZM219 7.8C219.2 7.8 219.4 7.7 219.6 7.6C219.8 7.5 219.9 7.3 220 7.1C220.1 6.9 220.1 6.6 220.1 6.3C220.1 6 220.1 5.8 220 5.6C219.9 5.4 219.8 5.2 219.6 5.1C219.4 5 219.2 4.9 219 4.9C218.8 4.9 218.6 5 218.4 5.1C218.2 5.2 218.1 5.4 218 5.6C217.9 5.8 217.9 6.1 217.9 6.3C217.9 6.6 217.9 6.8 218 7C218.1 7.2 218.2 7.4 218.4 7.5C218.6 7.7 218.8 7.8 219 7.8Z" fill="#171717"/>
</g>
<defs>
<clipPath id="clip0_4_2">
<rect width="311.3" height="122.5" fill="white"/>
</clipPath>
</defs>
</svg>
