<svg width="313" height="236" viewBox="0 0 313 236" fill="none" xmlns="http://www.w3.org/2000/svg">
<path d="M64.396 45.5921C45.2611 66.7796 34.7724 94.3756 35.0037 122.924" stroke="#A6DEFF" stroke-width="15"/>
<path d="M144.5 8.08886C117.509 9.15518 91.7739 19.7708 71.8809 38.0438" stroke="#76C3F1" stroke-width="15"/>
<path d="M226.854 38.7253C207.176 20.3273 181.617 9.49283 154.711 8.14316" stroke="#5FAAD7" stroke-width="15"/>
<path d="M263 122C263 93.8135 252.558 66.6264 233.689 45.6869" stroke="#0077BF" stroke-width="15"/>
<path d="M55.1005 123.078C54.7358 123.077 54.4242 122.981 54.1657 122.79C53.9071 122.599 53.7094 122.321 53.5724 121.957C53.4355 121.592 53.367 121.153 53.367 120.639C53.367 120.126 53.4355 119.688 53.5724 119.325C53.7109 118.962 53.9094 118.685 54.168 118.494C54.428 118.304 54.7389 118.208 55.1005 118.208C55.4621 118.208 55.7722 118.304 56.0307 118.497C56.2892 118.687 56.487 118.964 56.6239 119.328C56.7624 119.689 56.8317 120.126 56.8317 120.639C56.8317 121.154 56.7632 121.594 56.6262 121.959C56.4893 122.322 56.2915 122.6 56.033 122.792C55.7745 122.983 55.4637 123.078 55.1005 123.078ZM55.1005 122.462C55.4206 122.462 55.6706 122.306 55.8507 121.994C56.0323 121.681 56.123 121.23 56.123 120.639C56.123 120.246 56.0815 119.915 55.9984 119.644C55.9168 119.371 55.7991 119.165 55.6452 119.025C55.4929 118.884 55.3113 118.813 55.1005 118.813C54.782 118.813 54.5319 118.97 54.3503 119.284C54.1687 119.598 54.0772 120.049 54.0756 120.639C54.0756 121.033 54.1164 121.366 54.198 121.638C54.2811 121.909 54.3988 122.114 54.5511 122.254C54.7035 122.393 54.8866 122.462 55.1005 122.462Z" fill="#171717"/>
<path d="M58.2482 89.2727V94H57.5327V89.9883H57.505L56.3739 90.7269V90.0437L57.5534 89.2727H58.2482ZM61.1728 94.0785C60.8081 94.0769 60.4964 93.9808 60.2379 93.79C59.9794 93.5991 59.7817 93.3214 59.6447 92.9567C59.5078 92.592 59.4393 92.1526 59.4393 91.6387C59.4393 91.1262 59.5078 90.6884 59.6447 90.3253C59.7832 89.9621 59.9817 89.6851 60.2402 89.4943C60.5003 89.3035 60.8111 89.2081 61.1728 89.2081C61.5344 89.2081 61.8445 89.3043 62.103 89.4966C62.3615 89.6874 62.5592 89.9644 62.6962 90.3276C62.8347 90.6892 62.9039 91.1262 62.9039 91.6387C62.9039 92.1542 62.8355 92.5943 62.6985 92.959C62.5616 93.3221 62.3638 93.5999 62.1053 93.7923C61.8468 93.9831 61.5359 94.0785 61.1728 94.0785ZM61.1728 93.4622C61.4928 93.4622 61.7429 93.306 61.9229 92.9936C62.1045 92.6812 62.1953 92.2296 62.1953 91.6387C62.1953 91.2463 62.1538 90.9147 62.0707 90.6438C61.9891 90.3714 61.8714 90.1652 61.7175 90.0252C61.5652 89.8836 61.3836 89.8129 61.1728 89.8129C60.8542 89.8129 60.6042 89.9698 60.4226 90.2837C60.241 90.5977 60.1494 91.0493 60.1479 91.6387C60.1479 92.0326 60.1887 92.3658 60.2702 92.6381C60.3533 92.909 60.4711 93.1144 60.6234 93.2544C60.7757 93.3929 60.9589 93.4622 61.1728 93.4622Z" fill="#171717"/>
<path d="M69.4547 68V67.483L71.0543 65.8256C71.2251 65.6456 71.3659 65.4879 71.4767 65.3525C71.5891 65.2155 71.6729 65.0855 71.7283 64.9624C71.7837 64.8393 71.8114 64.7085 71.8114 64.57C71.8114 64.413 71.7745 64.2776 71.7006 64.1637C71.6268 64.0483 71.526 63.9598 71.3983 63.8983C71.2705 63.8352 71.1267 63.8036 70.9666 63.8036C70.7973 63.8036 70.6496 63.8382 70.5234 63.9075C70.3973 63.9767 70.3003 64.0745 70.2326 64.2006C70.1649 64.3268 70.131 64.4746 70.131 64.6438H69.4501C69.4501 64.3561 69.5163 64.1045 69.6486 63.889C69.781 63.6736 69.9625 63.5066 70.1934 63.3881C70.4242 63.2681 70.6866 63.2081 70.9805 63.2081C71.2775 63.2081 71.5391 63.2673 71.7653 63.3858C71.993 63.5028 72.1708 63.6628 72.2985 63.8659C72.4262 64.0675 72.4901 64.2953 72.4901 64.5492C72.4901 64.7246 72.457 64.8962 72.3908 65.0639C72.3262 65.2317 72.2131 65.4186 72.0515 65.6248C71.8899 65.8295 71.6652 66.078 71.3775 66.3704L70.438 67.3537V67.3883H72.5662V68H69.4547ZM75.0868 68.0785C74.7221 68.0769 74.4105 67.9808 74.152 67.79C73.8935 67.5991 73.6957 67.3214 73.5588 66.9567C73.4218 66.592 73.3533 66.1526 73.3533 65.6387C73.3533 65.1262 73.4218 64.6884 73.5588 64.3253C73.6973 63.9621 73.8958 63.6851 74.1543 63.4943C74.4144 63.3035 74.7252 63.2081 75.0868 63.2081C75.4484 63.2081 75.7585 63.3043 76.017 63.4966C76.2756 63.6874 76.4733 63.9644 76.6103 64.3276C76.7488 64.6892 76.818 65.1262 76.818 65.6387C76.818 66.1542 76.7495 66.5943 76.6126 66.959C76.4756 67.3221 76.2779 67.5999 76.0194 67.7923C75.7608 67.9831 75.45 68.0785 75.0868 68.0785ZM75.0868 67.4622C75.4069 67.4622 75.657 67.306 75.837 66.9936C76.0186 66.6812 76.1094 66.2296 76.1094 65.6387C76.1094 65.2463 76.0678 64.9147 75.9847 64.6438C75.9032 64.3714 75.7855 64.1652 75.6316 64.0252C75.4792 63.8836 75.2976 63.8129 75.0868 63.8129C74.7683 63.8129 74.5182 63.9698 74.3366 64.2837C74.1551 64.5977 74.0635 65.0493 74.062 65.6387C74.062 66.0326 74.1027 66.3658 74.1843 66.6381C74.2674 66.909 74.3851 67.1144 74.5375 67.2544C74.6898 67.3929 74.8729 67.4622 75.0868 67.4622Z" fill="#171717"/>
<path d="M92.1005 47.0646C91.7835 47.0646 91.5004 47.01 91.2511 46.9007C91.0033 46.7915 90.8071 46.6399 90.6625 46.446C90.5194 46.2506 90.4424 46.0244 90.4316 45.7674H91.1564C91.1657 45.9074 91.2126 46.029 91.2972 46.1321C91.3834 46.2337 91.4957 46.3121 91.6342 46.3675C91.7727 46.4229 91.9266 46.4506 92.0959 46.4506C92.2821 46.4506 92.4467 46.4183 92.5898 46.3537C92.7345 46.2891 92.8476 46.199 92.9292 46.0836C93.0107 45.9667 93.0515 45.832 93.0515 45.6797C93.0515 45.5212 93.0107 45.3819 92.9292 45.2619C92.8491 45.1403 92.7314 45.0449 92.576 44.9757C92.4221 44.9064 92.2359 44.8718 92.0174 44.8718H91.6181V44.2901H92.0174C92.1928 44.2901 92.3467 44.2586 92.479 44.1955C92.6129 44.1324 92.7176 44.0447 92.793 43.9324C92.8684 43.8185 92.9061 43.6854 92.9061 43.533C92.9061 43.3868 92.873 43.2599 92.8068 43.1522C92.7422 43.0429 92.6499 42.9575 92.5298 42.896C92.4113 42.8344 92.2713 42.8036 92.1097 42.8036C91.9558 42.8036 91.812 42.8321 91.6781 42.889C91.5458 42.9444 91.438 43.0244 91.3549 43.1291C91.2718 43.2322 91.2272 43.3561 91.2211 43.5007H90.5309C90.5386 43.2453 90.614 43.0206 90.7571 42.8267C90.9018 42.6328 91.0926 42.4812 91.3295 42.372C91.5665 42.2627 91.8297 42.2081 92.119 42.2081C92.4221 42.2081 92.6837 42.2673 92.9038 42.3858C93.1254 42.5028 93.2962 42.659 93.4162 42.8544C93.5378 43.0498 93.5978 43.2637 93.5962 43.4961C93.5978 43.7608 93.5239 43.9854 93.3746 44.1701C93.2269 44.3548 93.0299 44.4786 92.7837 44.5417V44.5787C93.0977 44.6264 93.3408 44.751 93.5131 44.9526C93.687 45.1542 93.7732 45.4042 93.7717 45.7028C93.7732 45.9628 93.7009 46.196 93.5547 46.4022C93.41 46.6084 93.2123 46.7707 92.9615 46.8892C92.7106 47.0062 92.4237 47.0646 92.1005 47.0646ZM96.29 47.0785C95.9252 47.0769 95.6136 46.9808 95.3551 46.79C95.0966 46.5991 94.8989 46.3214 94.7619 45.9567C94.6249 45.592 94.5565 45.1526 94.5565 44.6387C94.5565 44.1262 94.6249 43.6884 94.7619 43.3253C94.9004 42.9621 95.0989 42.6851 95.3574 42.4943C95.6175 42.3035 95.9283 42.2081 96.29 42.2081C96.6516 42.2081 96.9616 42.3043 97.2202 42.4966C97.4787 42.6874 97.6764 42.9644 97.8134 43.3276C97.9519 43.6892 98.0211 44.1262 98.0211 44.6387C98.0211 45.1542 97.9527 45.5943 97.8157 45.959C97.6787 46.3221 97.481 46.5999 97.2225 46.7923C96.964 46.9831 96.6531 47.0785 96.29 47.0785ZM96.29 46.4622C96.61 46.4622 96.8601 46.306 97.0401 45.9936C97.2217 45.6812 97.3125 45.2296 97.3125 44.6387C97.3125 44.2463 97.271 43.9147 97.1879 43.6438C97.1063 43.3714 96.9886 43.1652 96.8347 43.0252C96.6824 42.8836 96.5008 42.8129 96.29 42.8129C95.9714 42.8129 95.7214 42.9698 95.5398 43.2837C95.3582 43.5977 95.2666 44.0493 95.2651 44.6387C95.2651 45.0326 95.3059 45.3658 95.3874 45.6381C95.4705 45.909 95.5882 46.1144 95.7406 46.2544C95.8929 46.3929 96.0761 46.4622 96.29 46.4622Z" fill="#171717"/>
<path d="M116.355 33.0767V32.4996L118.398 29.2727H118.853V30.1222H118.564L117.103 32.435V32.4719H119.903V33.0767H116.355ZM118.597 34V32.9013L118.601 32.6381V29.2727H119.278V34H118.597ZM122.353 34.0785C121.989 34.0769 121.677 33.9808 121.419 33.79C121.16 33.5991 120.962 33.3214 120.825 32.9567C120.688 32.592 120.62 32.1526 120.62 31.6387C120.62 31.1262 120.688 30.6884 120.825 30.3253C120.964 29.9621 121.162 29.6851 121.421 29.4943C121.681 29.3035 121.992 29.2081 122.353 29.2081C122.715 29.2081 123.025 29.3043 123.284 29.4966C123.542 29.6874 123.74 29.9644 123.877 30.3276C124.015 30.6892 124.085 31.1262 124.085 31.6387C124.085 32.1542 124.016 32.5943 123.879 32.959C123.742 33.3221 123.544 33.5999 123.286 33.7923C123.027 33.9831 122.717 34.0785 122.353 34.0785ZM122.353 33.4622C122.674 33.4622 122.924 33.306 123.104 32.9936C123.285 32.6812 123.376 32.2296 123.376 31.6387C123.376 31.2463 123.334 30.9147 123.251 30.6438C123.17 30.3714 123.052 30.1652 122.898 30.0252C122.746 29.8836 122.564 29.8129 122.353 29.8129C122.035 29.8129 121.785 29.9698 121.603 30.2837C121.422 30.5977 121.33 31.0493 121.329 31.6387C121.329 32.0326 121.369 32.3658 121.451 32.6381C121.534 32.909 121.652 33.1144 121.804 33.2544C121.956 33.3929 122.14 33.4622 122.353 33.4622Z" fill="#171717"/>
<path d="M147.015 29.0646C146.726 29.0646 146.466 29.0092 146.235 28.8984C146.006 28.7861 145.823 28.6322 145.686 28.4368C145.549 28.2414 145.475 28.0182 145.466 27.7674H146.159C146.176 27.9705 146.266 28.1375 146.429 28.2683C146.592 28.3991 146.787 28.4645 147.015 28.4645C147.197 28.4645 147.357 28.4229 147.498 28.3398C147.639 28.2552 147.75 28.139 147.83 27.9913C147.911 27.8436 147.952 27.6751 147.952 27.4858C147.952 27.2934 147.911 27.1219 147.828 26.9711C147.744 26.8203 147.63 26.7018 147.484 26.6156C147.339 26.5294 147.173 26.4856 146.985 26.484C146.842 26.484 146.698 26.5086 146.553 26.5579C146.409 26.6071 146.292 26.6718 146.203 26.7518L145.549 26.6548L145.815 24.2727H148.414V24.8844H146.408L146.258 26.207H146.286C146.378 26.1178 146.5 26.0431 146.653 25.9831C146.807 25.9231 146.971 25.8931 147.147 25.8931C147.434 25.8931 147.691 25.9616 147.915 26.0985C148.142 26.2355 148.319 26.4225 148.449 26.6594C148.579 26.8949 148.644 27.1657 148.642 27.4719C148.644 27.7782 148.575 28.0513 148.435 28.2914C148.296 28.5314 148.104 28.7207 147.858 28.8592C147.613 28.9962 147.332 29.0646 147.015 29.0646ZM151.131 29.0785C150.767 29.0769 150.455 28.9808 150.196 28.79C149.938 28.5991 149.74 28.3214 149.603 27.9567C149.466 27.592 149.398 27.1526 149.398 26.6387C149.398 26.1262 149.466 25.6884 149.603 25.3253C149.742 24.9621 149.94 24.6851 150.199 24.4943C150.459 24.3035 150.77 24.2081 151.131 24.2081C151.493 24.2081 151.803 24.3043 152.061 24.4966C152.32 24.6874 152.518 24.9644 152.655 25.3276C152.793 25.6892 152.862 26.1262 152.862 26.6387C152.862 27.1542 152.794 27.5943 152.657 27.959C152.52 28.3221 152.322 28.5999 152.064 28.7923C151.805 28.9831 151.494 29.0785 151.131 29.0785ZM151.131 28.4622C151.451 28.4622 151.701 28.306 151.881 27.9936C152.063 27.6812 152.154 27.2296 152.154 26.6387C152.154 26.2463 152.112 25.9147 152.029 25.6438C151.948 25.3714 151.83 25.1652 151.676 25.0252C151.524 24.8836 151.342 24.8129 151.131 24.8129C150.813 24.8129 150.563 24.9698 150.381 25.2837C150.199 25.5977 150.108 26.0493 150.106 26.6387C150.106 27.0326 150.147 27.3658 150.229 27.6381C150.312 27.909 150.43 28.1144 150.582 28.2544C150.734 28.3929 150.917 28.4622 151.131 28.4622Z" fill="#171717"/>
<path d="M240.248 118.273V123H239.533V118.988H239.505L238.374 119.727V119.044L239.553 118.273H240.248ZM243.173 123.078C242.808 123.077 242.496 122.981 242.238 122.79C241.979 122.599 241.782 122.321 241.645 121.957C241.508 121.592 241.439 121.153 241.439 120.639C241.439 120.126 241.508 119.688 241.645 119.325C241.783 118.962 241.982 118.685 242.24 118.494C242.5 118.304 242.811 118.208 243.173 118.208C243.534 118.208 243.844 118.304 244.103 118.497C244.362 118.687 244.559 118.964 244.696 119.328C244.835 119.689 244.904 120.126 244.904 120.639C244.904 121.154 244.835 121.594 244.699 121.959C244.562 122.322 244.364 122.6 244.105 122.792C243.847 122.983 243.536 123.078 243.173 123.078ZM243.173 122.462C243.493 122.462 243.743 122.306 243.923 121.994C244.105 121.681 244.195 121.23 244.195 120.639C244.195 120.246 244.154 119.915 244.071 119.644C243.989 119.371 243.871 119.165 243.718 119.025C243.565 118.884 243.384 118.813 243.173 118.813C242.854 118.813 242.604 118.97 242.423 119.284C242.241 119.598 242.149 120.049 242.148 120.639C242.148 121.033 242.189 121.366 242.27 121.638C242.353 121.909 242.471 122.114 242.623 122.254C242.776 122.393 242.959 122.462 243.173 122.462ZM247.369 123.078C247.004 123.077 246.692 122.981 246.434 122.79C246.175 122.599 245.977 122.321 245.841 121.957C245.704 121.592 245.635 121.153 245.635 120.639C245.635 120.126 245.704 119.688 245.841 119.325C245.979 118.962 246.178 118.685 246.436 118.494C246.696 118.304 247.007 118.208 247.369 118.208C247.73 118.208 248.04 118.304 248.299 118.497C248.557 118.687 248.755 118.964 248.892 119.328C249.03 119.689 249.1 120.126 249.1 120.639C249.1 121.154 249.031 121.594 248.894 121.959C248.757 122.322 248.56 122.6 248.301 122.792C248.043 122.983 247.732 123.078 247.369 123.078ZM247.369 122.462C247.689 122.462 247.939 122.306 248.119 121.994C248.3 121.681 248.391 121.23 248.391 120.639C248.391 120.246 248.35 119.915 248.266 119.644C248.185 119.371 248.067 119.165 247.913 119.025C247.761 118.884 247.579 118.813 247.369 118.813C247.05 118.813 246.8 118.97 246.618 119.284C246.437 119.598 246.345 120.049 246.344 120.639C246.344 121.033 246.384 121.366 246.466 121.638C246.549 121.909 246.667 122.114 246.819 122.254C246.972 122.393 247.155 122.462 247.369 122.462Z" fill="#171717"/>
<path d="M237.027 89.2081C237.237 89.2096 237.445 89.2481 237.65 89.3235C237.855 89.3989 238.039 89.522 238.204 89.6928C238.37 89.8636 238.502 90.0945 238.601 90.3853C238.701 90.6746 238.752 91.0347 238.753 91.4656C238.753 91.8795 238.712 92.248 238.629 92.5712C238.545 92.8928 238.426 93.1644 238.271 93.386C238.117 93.6076 237.93 93.7761 237.71 93.8915C237.49 94.0069 237.242 94.0646 236.967 94.0646C236.685 94.0646 236.435 94.0092 236.216 93.8984C235.998 93.7876 235.82 93.6345 235.683 93.4391C235.546 93.2421 235.461 93.0159 235.427 92.7605H236.131C236.177 92.9636 236.271 93.1283 236.413 93.2544C236.556 93.3791 236.74 93.4414 236.967 93.4414C237.313 93.4414 237.583 93.2906 237.777 92.989C237.971 92.6858 238.068 92.2627 238.07 91.7195H238.033C237.953 91.8518 237.853 91.9657 237.733 92.0611C237.614 92.1565 237.481 92.2304 237.334 92.2827C237.186 92.335 237.028 92.3612 236.86 92.3612C236.588 92.3612 236.34 92.2942 236.117 92.1603C235.894 92.0265 235.716 91.8426 235.584 91.6087C235.452 91.3748 235.385 91.1078 235.385 90.8077C235.385 90.5092 235.453 90.2383 235.589 89.9952C235.726 89.7521 235.916 89.5597 236.161 89.4181C236.407 89.275 236.696 89.205 237.027 89.2081ZM237.029 89.8082C236.849 89.8082 236.687 89.8529 236.542 89.9421C236.399 90.0298 236.286 90.1491 236.203 90.2999C236.119 90.4492 236.078 90.6154 236.078 90.7985C236.078 90.9816 236.118 91.1478 236.198 91.2971C236.28 91.4448 236.39 91.5625 236.53 91.6502C236.672 91.7364 236.834 91.7795 237.015 91.7795C237.151 91.7795 237.277 91.7533 237.394 91.701C237.511 91.6487 237.613 91.5763 237.701 91.484C237.788 91.3902 237.857 91.284 237.906 91.1655C237.955 91.047 237.98 90.9223 237.98 90.7915C237.98 90.6177 237.938 90.4561 237.855 90.3068C237.774 90.1576 237.661 90.0375 237.518 89.9467C237.375 89.8544 237.212 89.8082 237.029 89.8082ZM241.233 94.0785C240.868 94.0769 240.557 93.9808 240.298 93.79C240.039 93.5991 239.842 93.3214 239.705 92.9567C239.568 92.592 239.499 92.1526 239.499 91.6387C239.499 91.1262 239.568 90.6884 239.705 90.3253C239.843 89.9621 240.042 89.6851 240.3 89.4943C240.56 89.3035 240.871 89.2081 241.233 89.2081C241.594 89.2081 241.905 89.3043 242.163 89.4966C242.422 89.6874 242.619 89.9644 242.756 90.3276C242.895 90.6892 242.964 91.1262 242.964 91.6387C242.964 92.1542 242.896 92.5943 242.759 92.959C242.622 93.3221 242.424 93.5999 242.165 93.7923C241.907 93.9831 241.596 94.0785 241.233 94.0785ZM241.233 93.4622C241.553 93.4622 241.803 93.306 241.983 92.9936C242.165 92.6812 242.255 92.2296 242.255 91.6387C242.255 91.2463 242.214 90.9147 242.131 90.6438C242.049 90.3714 241.931 90.1652 241.778 90.0252C241.625 89.8836 241.444 89.8129 241.233 89.8129C240.914 89.8129 240.664 89.9698 240.483 90.2837C240.301 90.5977 240.21 91.0493 240.208 91.6387C240.208 92.0326 240.249 92.3658 240.33 92.6381C240.413 92.909 240.531 93.1144 240.683 93.2544C240.836 93.3929 241.019 93.4622 241.233 93.4622Z" fill="#171717"/>
<path d="M223.052 68.0646C222.721 68.0646 222.429 68.0077 222.175 67.8938C221.923 67.7799 221.725 67.623 221.582 67.4229C221.439 67.2229 221.368 66.9951 221.369 66.7397C221.368 66.5397 221.409 66.3558 221.492 66.188C221.576 66.0188 221.691 65.878 221.836 65.7656C221.98 65.6518 222.142 65.5794 222.32 65.5487V65.521C222.085 65.464 221.896 65.3378 221.755 65.1424C221.613 64.947 221.543 64.7223 221.545 64.4684C221.543 64.2268 221.607 64.0114 221.736 63.8221C221.867 63.6313 222.046 63.4812 222.274 63.372C222.502 63.2627 222.761 63.2081 223.052 63.2081C223.34 63.2081 223.597 63.2635 223.823 63.3743C224.051 63.4835 224.23 63.6336 224.361 63.8244C224.492 64.0137 224.558 64.2283 224.559 64.4684C224.558 64.7223 224.485 64.947 224.342 65.1424C224.199 65.3378 224.013 65.464 223.784 65.521V65.5487C223.961 65.5794 224.12 65.6518 224.262 65.7656C224.405 65.878 224.519 66.0188 224.603 66.188C224.689 66.3558 224.733 66.5397 224.735 66.7397C224.733 66.9951 224.661 67.2229 224.518 67.4229C224.375 67.623 224.176 67.7799 223.922 67.8938C223.67 68.0077 223.38 68.0646 223.052 68.0646ZM223.052 67.4806C223.247 67.4806 223.417 67.4483 223.56 67.3837C223.703 67.3175 223.814 67.226 223.892 67.109C223.971 66.9905 224.011 66.852 224.012 66.6935C224.011 66.5289 223.968 66.3835 223.883 66.2573C223.8 66.1311 223.687 66.0318 223.544 65.9595C223.401 65.8872 223.237 65.851 223.052 65.851C222.866 65.851 222.7 65.8872 222.556 65.9595C222.411 66.0318 222.297 66.1311 222.214 66.2573C222.131 66.3835 222.09 66.5289 222.092 66.6935C222.09 66.852 222.128 66.9905 222.205 67.109C222.283 67.226 222.395 67.3175 222.54 67.3837C222.684 67.4483 222.855 67.4806 223.052 67.4806ZM223.052 65.2809C223.209 65.2809 223.348 65.2493 223.47 65.1863C223.591 65.1232 223.687 65.0355 223.756 64.9231C223.827 64.8108 223.863 64.6792 223.865 64.5284C223.863 64.3807 223.828 64.2514 223.758 64.1406C223.691 64.0298 223.596 63.9444 223.474 63.8844C223.353 63.8229 223.212 63.7921 223.052 63.7921C222.889 63.7921 222.746 63.8229 222.623 63.8844C222.501 63.9444 222.406 64.0298 222.339 64.1406C222.271 64.2514 222.238 64.3807 222.24 64.5284C222.238 64.6792 222.272 64.8108 222.341 64.9231C222.41 65.0355 222.506 65.1232 222.627 65.1863C222.75 65.2493 222.892 65.2809 223.052 65.2809ZM227.207 68.0785C226.843 68.0769 226.531 67.9808 226.273 67.79C226.014 67.5991 225.816 67.3214 225.679 66.9567C225.542 66.592 225.474 66.1526 225.474 65.6387C225.474 65.1262 225.542 64.6884 225.679 64.3253C225.818 63.9621 226.016 63.6851 226.275 63.4943C226.535 63.3035 226.846 63.2081 227.207 63.2081C227.569 63.2081 227.879 63.3043 228.138 63.4966C228.396 63.6874 228.594 63.9644 228.731 64.3276C228.869 64.6892 228.939 65.1262 228.939 65.6387C228.939 66.1542 228.87 66.5943 228.733 66.959C228.596 67.3221 228.398 67.5999 228.14 67.7923C227.881 67.9831 227.571 68.0785 227.207 68.0785ZM227.207 67.4622C227.528 67.4622 227.778 67.306 227.958 66.9936C228.139 66.6812 228.23 66.2296 228.23 65.6387C228.23 65.2463 228.188 64.9147 228.105 64.6438C228.024 64.3714 227.906 64.1652 227.752 64.0252C227.6 63.8836 227.418 63.8129 227.207 63.8129C226.889 63.8129 226.639 63.9698 226.457 64.2837C226.276 64.5977 226.184 65.0493 226.183 65.6387C226.183 66.0326 226.223 66.3658 226.305 66.6381C226.388 66.909 226.506 67.1144 226.658 67.2544C226.81 67.3929 226.994 67.4622 227.207 67.4622Z" fill="#171717"/>
<path d="M201.614 47L203.678 42.919V42.8844H201.291V42.2727H204.416V42.9052L202.36 47H201.614ZM206.763 47.0785C206.398 47.0769 206.087 46.9808 205.828 46.79C205.57 46.5991 205.372 46.3214 205.235 45.9567C205.098 45.592 205.03 45.1526 205.03 44.6387C205.03 44.1262 205.098 43.6884 205.235 43.3253C205.374 42.9621 205.572 42.6851 205.831 42.4943C206.091 42.3035 206.401 42.2081 206.763 42.2081C207.125 42.2081 207.435 42.3043 207.693 42.4966C207.952 42.6874 208.15 42.9644 208.287 43.3276C208.425 43.6892 208.494 44.1262 208.494 44.6387C208.494 45.1542 208.426 45.5943 208.289 45.959C208.152 46.3221 207.954 46.5999 207.696 46.7923C207.437 46.9831 207.126 47.0785 206.763 47.0785ZM206.763 46.4622C207.083 46.4622 207.333 46.306 207.513 45.9936C207.695 45.6812 207.786 45.2296 207.786 44.6387C207.786 44.2463 207.744 43.9147 207.661 43.6438C207.579 43.3714 207.462 43.1652 207.308 43.0252C207.155 42.8836 206.974 42.8129 206.763 42.8129C206.445 42.8129 206.194 42.9698 206.013 43.2837C205.831 43.5977 205.74 44.0493 205.738 44.6387C205.738 45.0326 205.779 45.3658 205.861 45.6381C205.944 45.909 206.061 46.1144 206.214 46.2544C206.366 46.3929 206.549 46.4622 206.763 46.4622Z" fill="#171717"/>
<path d="M177.105 34.0646C176.894 34.0616 176.687 34.0231 176.482 33.9492C176.279 33.8754 176.094 33.7522 175.928 33.5799C175.762 33.4076 175.629 33.176 175.529 32.8851C175.43 32.5943 175.381 32.2311 175.381 31.7956C175.381 31.3832 175.422 31.017 175.503 30.6969C175.586 30.3768 175.706 30.1068 175.861 29.8867C176.016 29.6651 176.204 29.4966 176.424 29.3812C176.644 29.2658 176.891 29.2081 177.165 29.2081C177.447 29.2081 177.697 29.2635 177.915 29.3743C178.134 29.4851 178.311 29.6382 178.446 29.8336C178.583 30.0291 178.67 30.2514 178.707 30.5007H178.003C177.955 30.3037 177.861 30.1429 177.719 30.0183C177.578 29.8936 177.393 29.8313 177.165 29.8313C176.819 29.8313 176.549 29.9821 176.355 30.2837C176.163 30.5853 176.066 31.0047 176.064 31.5417H176.099C176.18 31.4078 176.28 31.294 176.399 31.2001C176.519 31.1047 176.653 31.0316 176.8 30.9808C176.95 30.9285 177.107 30.9023 177.271 30.9023C177.545 30.9023 177.793 30.9693 178.015 31.1032C178.238 31.2355 178.415 31.4186 178.548 31.6525C178.68 31.8864 178.746 32.1542 178.746 32.4558C178.746 32.7574 178.678 33.0305 178.541 33.2752C178.405 33.5199 178.215 33.7138 177.968 33.8569C177.722 33.9985 177.434 34.0677 177.105 34.0646ZM177.103 33.4645C177.284 33.4645 177.447 33.4199 177.59 33.3306C177.733 33.2414 177.846 33.1213 177.929 32.9705C178.012 32.8197 178.054 32.6512 178.054 32.465C178.054 32.2834 178.013 32.118 177.931 31.9688C177.851 31.8195 177.741 31.701 177.599 31.6133C177.459 31.5256 177.299 31.4817 177.119 31.4817C176.982 31.4817 176.855 31.5079 176.738 31.5602C176.623 31.6125 176.521 31.6848 176.433 31.7772C176.346 31.8695 176.276 31.9757 176.226 32.0957C176.176 32.2142 176.152 32.3396 176.152 32.4719C176.152 32.6489 176.193 32.8128 176.274 32.9636C176.357 33.1144 176.47 33.236 176.613 33.3283C176.758 33.4191 176.921 33.4645 177.103 33.4645ZM181.233 34.0785C180.868 34.0769 180.557 33.9808 180.298 33.79C180.039 33.5991 179.842 33.3214 179.705 32.9567C179.568 32.592 179.499 32.1526 179.499 31.6387C179.499 31.1262 179.568 30.6884 179.705 30.3253C179.843 29.9621 180.042 29.6851 180.3 29.4943C180.56 29.3035 180.871 29.2081 181.233 29.2081C181.594 29.2081 181.905 29.3043 182.163 29.4966C182.422 29.6874 182.619 29.9644 182.756 30.3276C182.895 30.6892 182.964 31.1262 182.964 31.6387C182.964 32.1542 182.896 32.5943 182.759 32.959C182.622 33.3221 182.424 33.5999 182.165 33.7923C181.907 33.9831 181.596 34.0785 181.233 34.0785ZM181.233 33.4622C181.553 33.4622 181.803 33.306 181.983 32.9936C182.165 32.6812 182.255 32.2296 182.255 31.6387C182.255 31.2463 182.214 30.9147 182.131 30.6438C182.049 30.3714 181.931 30.1652 181.778 30.0252C181.625 29.8836 181.444 29.8129 181.233 29.8129C180.914 29.8129 180.664 29.9698 180.483 30.2837C180.301 30.5977 180.21 31.0493 180.208 31.6387C180.208 32.0326 180.249 32.3658 180.33 32.6381C180.413 32.909 180.531 33.1144 180.683 33.2544C180.836 33.3929 181.019 33.4622 181.233 33.4622Z" fill="#171717"/>
<path d="M4.29066 77.2686C4.23917 77.1071 4.16992 76.9624 4.08292 76.8345C3.99769 76.7049 3.8956 76.5948 3.77663 76.5043C3.65767 76.4119 3.52184 76.3418 3.36914 76.2939C3.21822 76.2459 3.0522 76.2219 2.87109 76.2219C2.56392 76.2219 2.28693 76.301 2.04013 76.459C1.79332 76.617 1.59801 76.8487 1.45419 77.1541C1.31214 77.4577 1.24112 77.8297 1.24112 78.2701C1.24112 78.7122 1.31303 79.0859 1.45685 79.3913C1.60067 79.6967 1.79776 79.9284 2.04812 80.0865C2.29847 80.2445 2.58345 80.3235 2.90305 80.3235C3.19957 80.3235 3.45792 80.2631 3.67809 80.1424C3.90004 80.0217 4.07138 79.8512 4.19212 79.631C4.31463 79.4091 4.37589 79.1481 4.37589 78.848L4.58896 78.888H3.02823V78.2088H5.17223V78.8294C5.17223 79.2875 5.07457 79.6852 4.87926 80.0225C4.68572 80.3581 4.41761 80.6174 4.07493 80.8002C3.73402 80.9831 3.34339 81.0746 2.90305 81.0746C2.40945 81.0746 1.97621 80.9609 1.60334 80.7337C1.23224 80.5064 0.942827 80.1841 0.735085 79.7669C0.527344 79.3478 0.423473 78.8507 0.423473 78.2754C0.423473 77.8404 0.483842 77.4498 0.604581 77.1035C0.72532 76.7573 0.894886 76.4634 1.11328 76.2219C1.33345 75.9787 1.5918 75.7931 1.88832 75.6653C2.18661 75.5357 2.51243 75.4709 2.86577 75.4709C3.16051 75.4709 3.43484 75.5144 3.68874 75.6014C3.94442 75.6884 4.1717 75.8118 4.37056 75.9716C4.5712 76.1314 4.73722 76.3214 4.86861 76.5415C5 76.7599 5.08878 77.0023 5.13494 77.2686H4.29066ZM7.8762 81.0826C7.49268 81.0826 7.15798 80.9947 6.87211 80.8189C6.58625 80.6431 6.3643 80.3972 6.20628 80.0811C6.04825 79.7651 5.96924 79.3958 5.96924 78.9732C5.96924 78.5488 6.04825 78.1777 6.20628 77.8599C6.3643 77.5421 6.58625 77.2953 6.87211 77.1195C7.15798 76.9437 7.49268 76.8558 7.8762 76.8558C8.25972 76.8558 8.59442 76.9437 8.88028 77.1195C9.16615 77.2953 9.38809 77.5421 9.54612 77.8599C9.70415 78.1777 9.78316 78.5488 9.78316 78.9732C9.78316 79.3958 9.70415 79.7651 9.54612 80.0811C9.38809 80.3972 9.16615 80.6431 8.88028 80.8189C8.59442 80.9947 8.25972 81.0826 7.8762 81.0826ZM7.87886 80.4141C8.12744 80.4141 8.33341 80.3484 8.49676 80.217C8.66011 80.0856 8.78085 79.9107 8.85898 79.6923C8.93888 79.4739 8.97883 79.2333 8.97883 78.9705C8.97883 78.7095 8.93888 78.4698 8.85898 78.2514C8.78085 78.0312 8.66011 77.8546 8.49676 77.7214C8.33341 77.5882 8.12744 77.5217 7.87886 77.5217C7.62851 77.5217 7.42077 77.5882 7.25564 77.7214C7.09229 77.8546 6.97066 78.0312 6.89076 78.2514C6.81263 78.4698 6.77357 78.7095 6.77357 78.9705C6.77357 79.2333 6.81263 79.4739 6.89076 79.6923C6.97066 79.9107 7.09229 80.0856 7.25564 80.217C7.42077 80.3484 7.62851 80.4141 7.87886 80.4141ZM12.3952 81.0826C12.0117 81.0826 11.677 80.9947 11.3912 80.8189C11.1053 80.6431 10.8833 80.3972 10.7253 80.0811C10.5673 79.7651 10.4883 79.3958 10.4883 78.9732C10.4883 78.5488 10.5673 78.1777 10.7253 77.8599C10.8833 77.5421 11.1053 77.2953 11.3912 77.1195C11.677 76.9437 12.0117 76.8558 12.3952 76.8558C12.7788 76.8558 13.1135 76.9437 13.3993 77.1195C13.6852 77.2953 13.9071 77.5421 14.0652 77.8599C14.2232 78.1777 14.3022 78.5488 14.3022 78.9732C14.3022 79.3958 14.2232 79.7651 14.0652 80.0811C13.9071 80.3972 13.6852 80.6431 13.3993 80.8189C13.1135 80.9947 12.7788 81.0826 12.3952 81.0826ZM12.3979 80.4141C12.6465 80.4141 12.8525 80.3484 13.0158 80.217C13.1792 80.0856 13.2999 79.9107 13.378 79.6923C13.4579 79.4739 13.4979 79.2333 13.4979 78.9705C13.4979 78.7095 13.4579 78.4698 13.378 78.2514C13.2999 78.0312 13.1792 77.8546 13.0158 77.7214C12.8525 77.5882 12.6465 77.5217 12.3979 77.5217C12.1475 77.5217 11.9398 77.5882 11.7747 77.7214C11.6113 77.8546 11.4897 78.0312 11.4098 78.2514C11.3317 78.4698 11.2926 78.7095 11.2926 78.9705C11.2926 79.2333 11.3317 79.4739 11.4098 79.6923C11.4897 79.9107 11.6113 80.0856 11.7747 80.217C11.9398 80.3484 12.1475 80.4141 12.3979 80.4141ZM16.7225 81.0799C16.3923 81.0799 16.0975 80.9956 15.8383 80.8269C15.5808 80.6564 15.3784 80.4141 15.231 80.0998C15.0854 79.7837 15.0127 79.4047 15.0127 78.9625C15.0127 78.5204 15.0863 78.1422 15.2337 77.8279C15.3829 77.5137 15.587 77.2731 15.8463 77.1062C16.1055 76.9393 16.3994 76.8558 16.7278 76.8558C16.9818 76.8558 17.1859 76.8984 17.3404 76.9837C17.4967 77.0671 17.6174 77.1648 17.7026 77.2766C17.7896 77.3885 17.8571 77.487 17.9051 77.5723H17.953V75.5455H18.7493V81H17.9716V80.3635H17.9051C17.8571 80.4505 17.7879 80.5499 17.6973 80.6618C17.6085 80.7736 17.486 80.8713 17.3298 80.9547C17.1735 81.0382 16.9711 81.0799 16.7225 81.0799ZM16.8983 80.4007C17.1274 80.4007 17.3209 80.3404 17.4789 80.2196C17.6387 80.0971 17.7595 79.9276 17.8411 79.7109C17.9246 79.4943 17.9663 79.2422 17.9663 78.9545C17.9663 78.6705 17.9255 78.4219 17.8438 78.2088C17.7621 77.9957 17.6423 77.8297 17.4842 77.7108C17.3262 77.5918 17.1309 77.5323 16.8983 77.5323C16.6586 77.5323 16.4589 77.5945 16.2991 77.7188C16.1392 77.843 16.0185 78.0126 15.9368 78.2275C15.8569 78.4423 15.817 78.6847 15.817 78.9545C15.817 79.228 15.8578 79.4739 15.9395 79.6923C16.0212 79.9107 16.1419 80.0838 16.3017 80.2116C16.4633 80.3377 16.6622 80.4007 16.8983 80.4007Z" fill="#171717"/>
<path d="M281.076 75.5455L282.594 79.9879H282.655L284.173 75.5455H285.063L283.1 81H282.149L280.186 75.5455H281.076ZM287.14 81.0826C286.737 81.0826 286.39 80.9964 286.098 80.8242C285.809 80.6502 285.585 80.4061 285.427 80.0918C285.271 79.7757 285.193 79.4055 285.193 78.9812C285.193 78.5621 285.271 78.1928 285.427 77.8732C285.585 77.5536 285.805 77.3042 286.088 77.1248C286.372 76.9455 286.704 76.8558 287.084 76.8558C287.315 76.8558 287.538 76.894 287.755 76.9703C287.972 77.0467 288.166 77.1665 288.338 77.3299C288.511 77.4933 288.646 77.7054 288.746 77.9664C288.845 78.2257 288.895 78.5408 288.895 78.9119V79.1942H285.643V78.5977H288.115C288.115 78.3881 288.072 78.2026 287.987 78.041C287.902 77.8777 287.782 77.7489 287.627 77.6548C287.474 77.5607 287.295 77.5137 287.089 77.5137C286.865 77.5137 286.67 77.5687 286.503 77.6788C286.338 77.7871 286.21 77.9292 286.12 78.1049C286.031 78.2789 285.987 78.468 285.987 78.6722V79.1383C285.987 79.4118 286.034 79.6444 286.13 79.8361C286.228 80.0279 286.364 80.1744 286.538 80.2756C286.712 80.375 286.915 80.4247 287.148 80.4247C287.299 80.4247 287.436 80.4034 287.561 80.3608C287.685 80.3164 287.792 80.2507 287.883 80.1637C287.973 80.0767 288.043 79.9693 288.091 79.8414L288.844 79.9773C288.784 80.1992 288.676 80.3936 288.519 80.5605C288.365 80.7257 288.17 80.8544 287.936 80.9467C287.704 81.0373 287.438 81.0826 287.14 81.0826ZM289.778 81V76.9091H290.548V77.5589H290.591C290.665 77.3388 290.797 77.1657 290.985 77.0396C291.175 76.9118 291.39 76.8478 291.63 76.8478C291.679 76.8478 291.738 76.8496 291.805 76.8532C291.875 76.8567 291.929 76.8612 291.968 76.8665V77.6282C291.936 77.6193 291.879 77.6096 291.797 77.5989C291.716 77.5865 291.634 77.5803 291.552 77.5803C291.364 77.5803 291.196 77.6202 291.049 77.7001C290.903 77.7782 290.788 77.8874 290.703 78.0277C290.617 78.1662 290.575 78.3242 290.575 78.5018V81H289.778ZM293.285 82.5341C293.166 82.5341 293.058 82.5243 292.96 82.5048C292.862 82.487 292.789 82.4675 292.741 82.4462L292.933 81.7937C293.079 81.8327 293.208 81.8496 293.322 81.8443C293.436 81.839 293.536 81.7963 293.623 81.7164C293.712 81.6365 293.79 81.506 293.857 81.3249L293.956 81.0533L292.459 76.9091H293.311L294.347 80.0838H294.39L295.426 76.9091H296.281L294.595 81.546C294.517 81.7591 294.418 81.9393 294.297 82.0866C294.176 82.2358 294.032 82.3477 293.865 82.4222C293.699 82.4968 293.505 82.5341 293.285 82.5341ZM299.078 81V75.5455H301.076C301.463 75.5455 301.783 75.6094 302.037 75.7372C302.291 75.8633 302.481 76.0346 302.607 76.2512C302.733 76.4661 302.796 76.7085 302.796 76.9783C302.796 77.2056 302.755 77.3974 302.671 77.5536C302.588 77.7081 302.476 77.8324 302.336 77.9265C302.197 78.0188 302.044 78.0863 301.877 78.1289V78.1822C302.059 78.1911 302.235 78.2496 302.407 78.358C302.581 78.4645 302.725 78.6163 302.839 78.8134C302.953 79.0105 303.009 79.2502 303.009 79.5325C303.009 79.8113 302.944 80.0616 302.812 80.2836C302.683 80.5037 302.482 80.6786 302.21 80.8082C301.939 80.9361 301.592 81 301.169 81H299.078ZM299.901 80.2942H301.089C301.483 80.2942 301.766 80.2179 301.936 80.0652C302.106 79.9125 302.192 79.7216 302.192 79.4925C302.192 79.3203 302.148 79.1623 302.061 79.0185C301.974 78.8746 301.85 78.7601 301.688 78.6749C301.529 78.5897 301.339 78.5471 301.118 78.5471H299.901V80.2942ZM299.901 77.9052H301.004C301.189 77.9052 301.355 77.8697 301.502 77.7987C301.651 77.7276 301.769 77.6282 301.856 77.5004C301.945 77.3707 301.989 77.218 301.989 77.0423C301.989 76.8168 301.91 76.6277 301.752 76.475C301.594 76.3223 301.352 76.2459 301.025 76.2459H299.901V77.9052ZM305.112 81.0906C304.853 81.0906 304.618 81.0426 304.409 80.9467C304.199 80.8491 304.033 80.7079 303.911 80.5233C303.79 80.3386 303.73 80.1122 303.73 79.8441C303.73 79.6133 303.774 79.4233 303.863 79.2741C303.952 79.125 304.072 79.0069 304.223 78.9199C304.373 78.8329 304.542 78.7672 304.729 78.7228C304.915 78.6784 305.105 78.6447 305.299 78.6216C305.544 78.5932 305.742 78.5701 305.895 78.5524C306.048 78.5328 306.159 78.5018 306.228 78.4592C306.297 78.4165 306.332 78.3473 306.332 78.2514V78.2328C306.332 78.0002 306.266 77.82 306.135 77.6921C306.005 77.5643 305.812 77.5004 305.554 77.5004C305.286 77.5004 305.075 77.5598 304.92 77.6788C304.768 77.796 304.662 77.9265 304.603 78.0703L303.855 77.8999C303.944 77.6513 304.073 77.4506 304.244 77.2979C304.416 77.1435 304.614 77.0316 304.838 76.9624C305.061 76.8913 305.297 76.8558 305.544 76.8558C305.707 76.8558 305.88 76.8754 306.063 76.9144C306.248 76.9517 306.42 77.021 306.58 77.1222C306.741 77.2234 306.873 77.3681 306.976 77.5563C307.079 77.7427 307.131 77.9851 307.131 78.2834V81H306.353V80.4407H306.321C306.27 80.5437 306.193 80.6449 306.09 80.7443C305.987 80.8437 305.854 80.9263 305.693 80.992C305.531 81.0577 305.338 81.0906 305.112 81.0906ZM305.285 80.4513C305.505 80.4513 305.694 80.4078 305.85 80.3208C306.008 80.2338 306.128 80.1202 306.209 79.9799C306.293 79.8379 306.335 79.6861 306.335 79.5245V78.9972C306.306 79.0256 306.251 79.0522 306.169 79.0771C306.09 79.1001 305.998 79.1206 305.895 79.1383C305.792 79.1543 305.692 79.1694 305.594 79.1836C305.496 79.196 305.415 79.2067 305.349 79.2156C305.195 79.2351 305.053 79.2679 304.926 79.3141C304.8 79.3603 304.698 79.4268 304.622 79.5138C304.547 79.5991 304.51 79.7127 304.51 79.8548C304.51 80.0518 304.583 80.201 304.729 80.3022C304.874 80.4016 305.06 80.4513 305.285 80.4513ZM309.723 81.0799C309.393 81.0799 309.098 80.9956 308.839 80.8269C308.581 80.6564 308.379 80.4141 308.232 80.0998C308.086 79.7837 308.013 79.4047 308.013 78.9625C308.013 78.5204 308.087 78.1422 308.234 77.8279C308.383 77.5137 308.588 77.2731 308.847 77.1062C309.106 76.9393 309.4 76.8558 309.728 76.8558C309.982 76.8558 310.186 76.8984 310.341 76.9837C310.497 77.0671 310.618 77.1648 310.703 77.2766C310.79 77.3885 310.858 77.487 310.906 77.5723H310.953V75.5455H311.75V81H310.972V80.3635H310.906C310.858 80.4505 310.788 80.5499 310.698 80.6618C310.609 80.7736 310.487 80.8713 310.33 80.9547C310.174 81.0382 309.972 81.0799 309.723 81.0799ZM309.899 80.4007C310.128 80.4007 310.321 80.3404 310.479 80.2196C310.639 80.0971 310.76 79.9276 310.842 79.7109C310.925 79.4943 310.967 79.2422 310.967 78.9545C310.967 78.6705 310.926 78.4219 310.844 78.2088C310.763 77.9957 310.643 77.8297 310.485 77.7108C310.327 77.5918 310.131 77.5323 309.899 77.5323C309.659 77.5323 309.459 77.5945 309.3 77.7188C309.14 77.843 309.019 78.0126 308.937 78.2275C308.857 78.4423 308.817 78.6847 308.817 78.9545C308.817 79.228 308.858 79.4739 308.94 79.6923C309.022 79.9107 309.142 80.0838 309.302 80.2116C309.464 80.3377 309.663 80.4007 309.899 80.4007Z" fill="#171717"/>
<path d="M59.06 9H58.1864L60.1493 3.54545H61.1001L63.063 9H62.1895L60.6474 4.53622H60.6048L59.06 9ZM59.2065 6.86399H62.0403V7.55646H59.2065V6.86399ZM66.7737 4.90909L65.2903 9H64.438L62.9518 4.90909H63.8068L64.8428 8.05717H64.8854L65.9188 4.90909H66.7737ZM69.1461 9.08256C68.7431 9.08256 68.396 8.99645 68.1048 8.82422C67.8153 8.65021 67.5916 8.40607 67.4336 8.0918C67.2773 7.77575 67.1992 7.40554 67.1992 6.98118C67.1992 6.56214 67.2773 6.19283 67.4336 5.87322C67.5916 5.55362 67.8118 5.30415 68.0941 5.12482C68.3782 4.94549 68.7102 4.85582 69.0902 4.85582C69.321 4.85582 69.5447 4.894 69.7614 4.97035C69.978 5.0467 70.1724 5.16655 70.3446 5.3299C70.5169 5.49325 70.6527 5.70543 70.7521 5.96644C70.8516 6.22567 70.9013 6.54084 70.9013 6.91193V7.19425H67.6493V6.59766H70.1209C70.1209 6.38814 70.0783 6.20259 69.9931 6.04102C69.9078 5.87766 69.788 5.74893 69.6335 5.65483C69.4808 5.56072 69.3015 5.51367 69.0955 5.51367C68.8718 5.51367 68.6765 5.56871 68.5096 5.6788C68.3445 5.78711 68.2166 5.92915 68.1261 6.10494C68.0373 6.27894 67.9929 6.46804 67.9929 6.67223V7.13832C67.9929 7.41175 68.0408 7.64435 68.1367 7.83612C68.2344 8.02788 68.3702 8.17436 68.5442 8.27557C68.7182 8.375 68.9215 8.42472 69.1541 8.42472C69.305 8.42472 69.4426 8.40341 69.5669 8.3608C69.6912 8.31641 69.7987 8.25071 69.8892 8.16371C69.9798 8.0767 70.049 7.96928 70.0969 7.84144L70.8507 7.97727C70.7903 8.19922 70.682 8.39364 70.5257 8.56055C70.3713 8.72567 70.1768 8.8544 69.9425 8.94673C69.7099 9.03729 69.4444 9.08256 69.1461 9.08256ZM71.7848 9V4.90909H72.5546V5.55895H72.5972C72.6717 5.33878 72.8031 5.16566 72.9913 5.0396C73.1813 4.91175 73.3962 4.84783 73.6359 4.84783C73.6856 4.84783 73.7442 4.84961 73.8117 4.85316C73.8809 4.85671 73.9351 4.86115 73.9741 4.86648V5.6282C73.9422 5.61932 73.8853 5.60955 73.8037 5.5989C73.722 5.58647 73.6403 5.58026 73.5586 5.58026C73.3704 5.58026 73.2026 5.62021 73.0553 5.70011C72.9097 5.77823 72.7943 5.88743 72.709 6.0277C72.6238 6.16619 72.5812 6.32422 72.5812 6.50178V9H71.7848ZM75.8172 9.09055C75.5579 9.09055 75.3236 9.04261 75.114 8.94673C74.9045 8.84908 74.7385 8.70792 74.616 8.52326C74.4953 8.3386 74.4349 8.11222 74.4349 7.84411C74.4349 7.61328 74.4793 7.4233 74.568 7.27415C74.6568 7.125 74.7767 7.00692 74.9276 6.91992C75.0785 6.83292 75.2472 6.76722 75.4336 6.72283C75.6201 6.67844 75.8101 6.64471 76.0036 6.62163C76.2486 6.59322 76.4475 6.57013 76.6002 6.55238C76.7529 6.53285 76.8639 6.50178 76.9331 6.45916C77.0024 6.41655 77.037 6.3473 77.037 6.25142V6.23278C77.037 6.00018 76.9713 5.81996 76.8399 5.69212C76.7103 5.56428 76.5167 5.50035 76.2593 5.50035C75.9912 5.50035 75.7799 5.55984 75.6254 5.6788C75.4727 5.79599 75.3671 5.92649 75.3085 6.07031L74.5601 5.89986C74.6488 5.65128 74.7785 5.45064 74.9489 5.29794C75.1211 5.14347 75.3191 5.0316 75.5428 4.96236C75.7666 4.89134 76.0018 4.85582 76.2486 4.85582C76.412 4.85582 76.5851 4.87536 76.768 4.91442C76.9526 4.9517 77.1249 5.02095 77.2847 5.12216C77.4462 5.22337 77.5785 5.36808 77.6815 5.55629C77.7845 5.74272 77.836 5.98509 77.836 6.28338V9H77.0583V8.4407H77.0263C76.9748 8.54368 76.8976 8.64489 76.7946 8.74432C76.6916 8.84375 76.5593 8.92631 76.3978 8.99201C76.2362 9.05771 76.0427 9.09055 75.8172 9.09055ZM75.9903 8.45135C76.2104 8.45135 76.3987 8.40785 76.5549 8.32085C76.7129 8.23384 76.8328 8.12021 76.9145 7.97994C76.9979 7.83789 77.0396 7.68608 77.0396 7.5245V6.99716C77.0112 7.02557 76.9562 7.0522 76.8745 7.07706C76.7946 7.10014 76.7032 7.12056 76.6002 7.13832C76.4972 7.1543 76.3969 7.16939 76.2992 7.18359C76.2016 7.19602 76.1199 7.20668 76.0542 7.21555C75.8997 7.23509 75.7586 7.26793 75.6307 7.3141C75.5047 7.36026 75.4035 7.42685 75.3271 7.51385C75.2525 7.59908 75.2152 7.71271 75.2152 7.85476C75.2152 8.05185 75.288 8.20099 75.4336 8.3022C75.5792 8.40163 75.7648 8.45135 75.9903 8.45135ZM80.6119 10.6193C80.2869 10.6193 80.0073 10.5767 79.7729 10.4915C79.5403 10.4063 79.3503 10.2935 79.2029 10.1532C79.0556 10.013 78.9455 9.85938 78.8727 9.69247L79.5572 9.41016C79.6051 9.48828 79.669 9.57085 79.7489 9.65785C79.8306 9.74663 79.9407 9.82209 80.0792 9.88423C80.2195 9.94638 80.3997 9.97745 80.6199 9.97745C80.9217 9.97745 81.1712 9.90376 81.3683 9.75639C81.5653 9.6108 81.6639 9.3782 81.6639 9.05859V8.25426H81.6133C81.5653 8.34126 81.4961 8.43803 81.4055 8.54457C81.3168 8.6511 81.1942 8.74343 81.038 8.82156C80.8817 8.89968 80.6784 8.93874 80.4281 8.93874C80.1049 8.93874 79.8137 8.86328 79.5545 8.71236C79.2971 8.55966 79.0929 8.33505 78.9419 8.03853C78.7928 7.74023 78.7182 7.37358 78.7182 6.93857C78.7182 6.50355 78.7919 6.13068 78.9393 5.81996C79.0884 5.50923 79.2926 5.27131 79.5518 5.10618C79.8111 4.93928 80.1049 4.85582 80.4334 4.85582C80.6873 4.85582 80.8924 4.89844 81.0487 4.98366C81.2049 5.06712 81.3265 5.16477 81.4135 5.27663C81.5023 5.38849 81.5707 5.48704 81.6186 5.57227H81.6772V4.90909H82.4576V9.09055C82.4576 9.44212 82.3759 9.73065 82.2125 9.95614C82.0492 10.1816 81.8281 10.3485 81.5494 10.4569C81.2724 10.5652 80.9599 10.6193 80.6119 10.6193ZM80.6039 8.27823C80.8329 8.27823 81.0265 8.22496 81.1845 8.11843C81.3443 8.01012 81.465 7.85565 81.5467 7.65501C81.6301 7.45259 81.6719 7.21023 81.6719 6.92791C81.6719 6.6527 81.631 6.41033 81.5494 6.20082C81.4677 5.9913 81.3478 5.82795 81.1898 5.71076C81.0318 5.5918 80.8365 5.53232 80.6039 5.53232C80.3642 5.53232 80.1644 5.59446 80.0046 5.71875C79.8448 5.84126 79.7241 6.00817 79.6424 6.21946C79.5625 6.43075 79.5225 6.6669 79.5225 6.92791C79.5225 7.19602 79.5634 7.43129 79.6451 7.6337C79.7267 7.83612 79.8475 7.99414 80.0073 8.10778C80.1689 8.22141 80.3677 8.27823 80.6039 8.27823ZM85.2887 9.08256C84.8857 9.08256 84.5385 8.99645 84.2473 8.82422C83.9579 8.65021 83.7342 8.40607 83.5762 8.0918C83.4199 7.77575 83.3418 7.40554 83.3418 6.98118C83.3418 6.56214 83.4199 6.19283 83.5762 5.87322C83.7342 5.55362 83.9544 5.30415 84.2367 5.12482C84.5208 4.94549 84.8528 4.85582 85.2328 4.85582C85.4636 4.85582 85.6873 4.894 85.9039 4.97035C86.1206 5.0467 86.315 5.16655 86.4872 5.3299C86.6594 5.49325 86.7953 5.70543 86.8947 5.96644C86.9941 6.22567 87.0439 6.54084 87.0439 6.91193V7.19425H83.7919V6.59766H86.2635C86.2635 6.38814 86.2209 6.20259 86.1357 6.04102C86.0504 5.87766 85.9306 5.74893 85.7761 5.65483C85.6234 5.56072 85.4441 5.51367 85.2381 5.51367C85.0144 5.51367 84.8191 5.56871 84.6522 5.6788C84.487 5.78711 84.3592 5.92915 84.2686 6.10494C84.1799 6.27894 84.1355 6.46804 84.1355 6.67223V7.13832C84.1355 7.41175 84.1834 7.64435 84.2793 7.83612C84.377 8.02788 84.5128 8.17436 84.6868 8.27557C84.8608 8.375 85.0641 8.42472 85.2967 8.42472C85.4476 8.42472 85.5852 8.40341 85.7095 8.3608C85.8338 8.31641 85.9412 8.25071 86.0318 8.16371C86.1223 8.0767 86.1916 7.96928 86.2395 7.84144L86.9933 7.97727C86.9329 8.19922 86.8246 8.39364 86.6683 8.56055C86.5138 8.72567 86.3194 8.8544 86.085 8.94673C85.8525 9.03729 85.587 9.08256 85.2887 9.08256Z" fill="#171717"/>
<path d="M208.599 9V3.54545H210.597C210.984 3.54545 211.304 3.60937 211.558 3.73722C211.812 3.86328 212.002 4.03462 212.128 4.25124C212.254 4.46609 212.317 4.70845 212.317 4.97834C212.317 5.20561 212.276 5.39737 212.192 5.55362C212.109 5.7081 211.997 5.83239 211.857 5.92649C211.718 6.01882 211.565 6.08629 211.398 6.12891V6.18217C211.58 6.19105 211.756 6.24964 211.928 6.35795C212.102 6.46449 212.246 6.6163 212.36 6.81339C212.474 7.01048 212.53 7.25018 212.53 7.53249C212.53 7.81126 212.465 8.06161 212.333 8.28356C212.204 8.50373 212.003 8.67862 211.731 8.80824C211.46 8.93608 211.113 9 210.69 9H208.599ZM209.422 8.29421H210.61C211.004 8.29421 211.287 8.21786 211.457 8.06516C211.627 7.91246 211.713 7.72159 211.713 7.49254C211.713 7.32031 211.669 7.16229 211.582 7.01847C211.495 6.87464 211.371 6.76012 211.209 6.67489C211.05 6.58967 210.86 6.54705 210.639 6.54705H209.422V8.29421ZM209.422 5.90518H210.525C210.71 5.90518 210.876 5.86967 211.023 5.79865C211.172 5.72763 211.29 5.6282 211.377 5.50035C211.466 5.37074 211.51 5.21804 211.51 5.04226C211.51 4.81676 211.431 4.62766 211.273 4.47496C211.115 4.32227 210.873 4.24592 210.546 4.24592H209.422V5.90518ZM214.633 9.09055C214.374 9.09055 214.139 9.04261 213.93 8.94673C213.72 8.84908 213.554 8.70792 213.432 8.52326C213.311 8.3386 213.251 8.11222 213.251 7.84411C213.251 7.61328 213.295 7.4233 213.384 7.27415C213.473 7.125 213.593 7.00692 213.744 6.91992C213.894 6.83292 214.063 6.76722 214.25 6.72283C214.436 6.67844 214.626 6.64471 214.82 6.62163C215.065 6.59322 215.263 6.57013 215.416 6.55238C215.569 6.53285 215.68 6.50178 215.749 6.45916C215.818 6.41655 215.853 6.3473 215.853 6.25142V6.23278C215.853 6.00018 215.787 5.81996 215.656 5.69212C215.526 5.56428 215.333 5.50035 215.075 5.50035C214.807 5.50035 214.596 5.55984 214.441 5.6788C214.289 5.79599 214.183 5.92649 214.124 6.07031L213.376 5.89986C213.465 5.65128 213.594 5.45064 213.765 5.29794C213.937 5.14347 214.135 5.0316 214.359 4.96236C214.582 4.89134 214.818 4.85582 215.065 4.85582C215.228 4.85582 215.401 4.87536 215.584 4.91442C215.769 4.9517 215.941 5.02095 216.101 5.12216C216.262 5.22337 216.394 5.36808 216.497 5.55629C216.6 5.74272 216.652 5.98509 216.652 6.28338V9H215.874V8.4407H215.842C215.791 8.54368 215.714 8.64489 215.611 8.74432C215.508 8.84375 215.375 8.92631 215.214 8.99201C215.052 9.05771 214.859 9.09055 214.633 9.09055ZM214.806 8.45135C215.026 8.45135 215.215 8.40785 215.371 8.32085C215.529 8.23384 215.649 8.12021 215.73 7.97994C215.814 7.83789 215.856 7.68608 215.856 7.5245V6.99716C215.827 7.02557 215.772 7.0522 215.69 7.07706C215.611 7.10014 215.519 7.12056 215.416 7.13832C215.313 7.1543 215.213 7.16939 215.115 7.18359C215.017 7.19602 214.936 7.20668 214.87 7.21555C214.716 7.23509 214.574 7.26793 214.447 7.3141C214.321 7.36026 214.219 7.42685 214.143 7.51385C214.068 7.59908 214.031 7.71271 214.031 7.85476C214.031 8.05185 214.104 8.20099 214.25 8.3022C214.395 8.40163 214.581 8.45135 214.806 8.45135ZM219.244 9.0799C218.914 9.0799 218.619 8.99556 218.36 8.82688C218.102 8.65643 217.9 8.41406 217.753 8.09979C217.607 7.78374 217.534 7.40465 217.534 6.96254C217.534 6.52042 217.608 6.14222 217.755 5.82795C217.904 5.51367 218.109 5.27308 218.368 5.10618C218.627 4.93928 218.921 4.85582 219.249 4.85582C219.503 4.85582 219.707 4.89844 219.862 4.98366C220.018 5.06712 220.139 5.16477 220.224 5.27663C220.311 5.38849 220.379 5.48704 220.427 5.57227H220.474V3.54545H221.271V9H220.493V8.36346H220.427C220.379 8.45046 220.309 8.54989 220.219 8.66175C220.13 8.77362 220.008 8.87127 219.851 8.95472C219.695 9.03817 219.493 9.0799 219.244 9.0799ZM219.42 8.40075C219.649 8.40075 219.842 8.34038 220 8.21964C220.16 8.09712 220.281 7.92756 220.363 7.71094C220.446 7.49432 220.488 7.24219 220.488 6.95455C220.488 6.67045 220.447 6.42187 220.365 6.20881C220.284 5.99574 220.164 5.82972 220.006 5.71076C219.848 5.5918 219.652 5.53232 219.42 5.53232C219.18 5.53232 218.98 5.59446 218.821 5.71875C218.661 5.84304 218.54 6.01261 218.458 6.22745C218.378 6.44229 218.338 6.68466 218.338 6.95455C218.338 7.22798 218.379 7.4739 218.461 7.69229C218.543 7.91069 218.663 8.08381 218.823 8.21165C218.985 8.33771 219.184 8.40075 219.42 8.40075Z" fill="#171717"/>
<circle cx="148.91" cy="122.91" r="6.5" transform="rotate(30.7488 148.91 122.91)" fill="#828282"/>
<path d="M148.5 31L151.531 120.25H145.469L148.5 31Z" fill="#828282"/>
</svg>
